<?xml version="1.0" encoding="utf-8"?>
<!-- Generator: Adobe Illustrator 22.0.1, SVG Export Plug-In . SVG Version: 6.00 Build 0)  -->
<svg version="1.1" id="Capa_1" xmlns="http://www.w3.org/2000/svg" xmlns:xlink="http://www.w3.org/1999/xlink" x="0px" y="0px"
	 viewBox="0 0 111 98" style="enable-background:new 0 0 111 98;" xml:space="preserve">
<style type="text/css">
	.st0{clip-path:url(#SVGID_2_);}
	.st1{clip-path:url(#SVGID_4_);}
	.st2{clip-path:url(#SVGID_6_);}
	.st3{fill:#040006;}
	.st4{fill:#111011;}
	.st5{fill:#373735;}
	.st6{fill:#FBF6CF;}
	.st7{fill:#2F2F2F;}
	.st8{fill:#1B1A1B;}
	.st9{fill:#464747;}
	.st10{fill:#FFFFFF;}
	.st11{fill:none;stroke:#FFFFFF;stroke-width:3;stroke-miterlimit:10;}
	.st12{fill:#27292E;}
	.st13{fill:#545454;}
	.st14{fill:#272727;}
	.st15{fill:#7F7F7F;}
	.st16{fill:#1D1C1D;}
</style>
<g>
	<path class="st12" d="M32.7,89.7c-6.8,0-12.2-3.6-14.5-9.7c-2.4-6.3-0.8-13.4,3.8-17.5c2.9-2.6,7.9-6,8.1-6.1l2.7,4.1
		c0,0-4.9,3.3-7.6,5.7c-3,2.7-4.1,7.8-2.4,12.1c0.9,2.4,3.4,6.5,9.9,6.5c5.2,0,8.5-3.3,12.3-7.2c4.6-4.7,9.9-10.1,19.6-10.1
		c17.2,0,24.9,17.4,25.2,18.2l-4.5,1.9c-0.1-0.1-6.7-15.2-20.7-15.2c-7.6,0-11.7,4.2-16.1,8.6C44.2,85.3,39.9,89.7,32.7,89.7z"/>
	<path class="st13" d="M46.4,32.3c-5.6,3.7-6.9,11.8-2.8,18c4.1,6.2,12,8.2,17.7,4.4l8.9-5.9L55.3,26.4L46.4,32.3z"/>
	
		<rect x="61.4" y="15.2" transform="matrix(0.833 -0.5533 0.5533 0.833 -6.5983 44.1113)" class="st13" width="16.8" height="35.6"/>
	<path class="st14" d="M77.5,29.4L61.7,39.9c-0.3,0.2-0.8,0.1-1-0.2l-0.7-1c-0.2-0.3-0.1-0.8,0.2-1L76,27.2L77.5,29.4z"/>
	<path class="st15" d="M82.9,8.8l-13.2,8.8l2.1,3.2L85,12c0.9-0.6,1.1-1.8,0.5-2.6C84.9,8.5,83.7,8.2,82.9,8.8z"/>
	<path class="st15" d="M97.1,30.3l-13.2,8.8l-2.1-3.2L95,27.1c0.9-0.6,2.1-0.3,2.6,0.5C98.2,28.5,98,29.7,97.1,30.3z"/>
	<rect x="69.9" y="15.4" transform="matrix(0.833 -0.5533 0.5533 0.833 4.2969 45.6269)" class="st16" width="15.6" height="0.6"/>
	<polygon class="st13" points="58.5,47.8 30.3,65.3 24.7,56.8 51.8,37.7 	"/>
	<rect x="82.1" y="33.7" transform="matrix(0.833 -0.5533 0.5533 0.833 -3.793 55.4019)" class="st16" width="15.6" height="0.6"/>
	<path class="st12" d="M56.3,18l9.5-6.3l1.2,1.8l-10.7,7.1l-0.3-0.5C55.4,19.4,55.6,18.5,56.3,18z"/>
	<path class="st12" d="M78.3,51.2l9.5-6.3l-1.2-1.8l-10.7,7.1l0.3,0.5C76.7,51.5,77.6,51.7,78.3,51.2z"/>
	<polygon class="st12" points="32.3,55.3 30.6,52.7 28.7,54 30.4,56.6 	"/>
	<polygon class="st12" points="36.9,52.3 35,49.5 33.2,50.8 35,53.5 	"/>
	<polygon class="st12" points="41.4,49.2 39.5,46.3 37.6,47.7 39.5,50.5 	"/>
	<polygon class="st12" points="32.8,60.1 34.5,62.7 36.4,61.5 34.7,58.9 	"/>
	<polygon class="st12" points="37.3,57.1 39.1,59.8 41.1,58.6 39.2,55.8 	"/>
	<polygon class="st12" points="41.9,54.1 43.8,56.9 45.7,55.7 43.8,52.8 	"/>
</g>
</svg>
