<?xml version="1.0" encoding="utf-8"?>
<!-- Generator: Adobe Illustrator 22.0.1, SVG Export Plug-In . SVG Version: 6.00 Build 0)  -->
<svg version="1.1" id="Capa_1" xmlns="http://www.w3.org/2000/svg" xmlns:xlink="http://www.w3.org/1999/xlink" x="0px" y="0px"
	 viewBox="0 0 111 98" style="enable-background:new 0 0 111 98;" xml:space="preserve">
<style type="text/css">
	.st0{clip-path:url(#SVGID_2_);}
	.st1{clip-path:url(#SVGID_4_);}
	.st2{clip-path:url(#SVGID_6_);}
	.st3{fill:#040006;}
	.st4{fill:#111011;}
	.st5{fill:#373735;}
	.st6{fill:#FBF6CF;}
	.st7{fill:#2F2F2F;}
	.st8{fill:#1B1A1B;}
	.st9{fill:#464747;}
	.st10{fill:#FFFFFF;}
	.st11{fill:none;stroke:#FFFFFF;stroke-width:3;stroke-miterlimit:10;}
	.st12{fill:#27292E;}
	.st13{fill:#545454;}
	.st14{fill:#272727;}
	.st15{fill:#7F7F7F;}
	.st16{fill:#1D1C1D;}
</style>
<g>
	<g>
		<defs>
			<rect id="SVGID_3_" x="4.9" y="9" width="101.2" height="80"/>
		</defs>
		<clipPath id="SVGID_2_">
			<use xlink:href="#SVGID_3_"  style="overflow:visible;"/>
		</clipPath>
		<path class="st0" d="M102.5,35.2c0,2.8-0.5,5.5-1.3,8.2c-4.1,18.7-40,41.4-41.5,42.4c-0.5,0.3-1,0.5-1.6,0.5
			c-0.5,0-1.1-0.1-1.6-0.5c-0.4-0.3-10.5-6.6-20.7-15.4c-1.2-1.1-1.4-2.9-0.3-4.1c1.1-1.2,2.9-1.4,4.1-0.3
			c7.6,6.5,15.3,11.8,18.5,13.9c10.8-7,34.5-24.9,37.4-38c0.8-2.3,1.1-4.5,1.1-6.6c0-7.5-4.1-14.4-10.6-18
			c-8.4-4.7-19.6-2.5-25.7,4.9c-1.1,1.3-3.4,1.3-4.5,0c-6.1-7.4-17.3-9.5-25.7-4.9c-6.6,3.6-10.6,10.5-10.6,18c0,2.1,0.3,4.3,1,6.3
			c0.4,1.9,1.3,3.8,2.3,5.8h17l5.8-13.4c0.5-1.1,1.7-1.9,2.9-1.7c1.3,0.1,2.3,1,2.6,2.2l4.3,18.2l5.5-9.1c0.5-0.9,1.5-1.4,2.5-1.4
			H74c1.6,0,2.9,1.3,2.9,2.9c0,1.6-1.3,2.9-2.9,2.9h-8.9l-8.3,13.8c-0.5,0.9-1.5,1.4-2.5,1.4c-0.2,0-0.3,0-0.5,0
			c-1.2-0.2-2.1-1-2.4-2.2l-3.9-16.5l-3.1,7.1c-0.5,1.1-1.5,1.8-2.7,1.8H7.8c-1.6,0-2.9-1.3-2.9-2.9c0-1.6,1.3-2.9,2.9-2.9h8.6
			c-0.6-1.4-1.1-2.9-1.4-4.2c-0.8-2.4-1.3-5.1-1.3-7.9c0-9.6,5.2-18.4,13.7-23.1C37.1,6.8,50,8.5,58.1,16c8-7.6,21-9.3,30.7-3.9
			C97.3,16.8,102.5,25.6,102.5,35.2L102.5,35.2z M102.5,35.2"/>
	</g>
</g>
</svg>
