<?xml version="1.0" encoding="utf-8"?>
<!-- Generator: Adobe Illustrator 22.0.1, SVG Export Plug-In . SVG Version: 6.00 Build 0)  -->
<svg version="1.1" id="Capa_1" xmlns="http://www.w3.org/2000/svg" xmlns:xlink="http://www.w3.org/1999/xlink" x="0px" y="0px"
	 viewBox="0 0 111 98" style="enable-background:new 0 0 111 98;" xml:space="preserve">
<style type="text/css">
	.st0{clip-path:url(#SVGID_2_);}
	.st1{clip-path:url(#SVGID_4_);}
	.st2{clip-path:url(#SVGID_6_);}
	.st3{fill:#040006;}
	.st4{fill:#111011;}
	.st5{fill:#373735;}
	.st6{fill:#FBF6CF;}
	.st7{fill:#2F2F2F;}
	.st8{fill:#1B1A1B;}
	.st9{fill:#464747;}
	.st10{fill:#FFFFFF;}
	.st11{fill:none;stroke:#FFFFFF;stroke-width:3;stroke-miterlimit:10;}
	.st12{fill:#27292E;}
	.st13{fill:#545454;}
	.st14{fill:#272727;}
	.st15{fill:#7F7F7F;}
	.st16{fill:#1D1C1D;}
</style>
<g>
	<path d="M31.7,90.6h5.1c1.6,0,3-0.9,3.6-2.4l0.5-1.1c0.3-0.7,1.1-1.2,1.8-1.2h29.9c0.8,0,1.4,0.5,1.8,1.2l0.5,1.2
		c0.7,1.4,2,2.3,3.6,2.3h5.4c2.9,0,4.8-3,3.5-5.6l-22-46.6c-2.2,1.5-4.7,2.4-7.5,2.4c-3,0-5.8-1.1-8-2.8l-0.2,0.4L28.2,85
		C26.9,87.6,28.8,90.6,31.7,90.6L31.7,90.6z M52.3,60.2l3.6-8.7c0.3-0.9,1.1-1.2,1.8-1.2c0.7,0,1.4,0.4,1.8,1.2l3.7,8.7
		c0.5,1.3-0.4,2.8-1.8,2.8h-7.3C52.7,63,51.7,61.5,52.3,60.2L52.3,60.2z M46.9,74.1l0.3-0.7c0.3-0.7,1.1-1.2,1.8-1.2h17.5
		c0.8,0,1.4,0.5,1.8,1.2l0.3,0.7c0.6,1.3-0.3,2.8-1.8,2.8H48.7C47.3,76.8,46.3,75.4,46.9,74.1L46.9,74.1z M46.9,74.1"/>
	<path d="M65.6,27.6c0,4.3-3.5,7.9-7.9,7.9c-4.3,0-7.9-3.5-7.9-7.9c0-4.4,3.5-7.9,7.9-7.9C62.1,19.8,65.6,23.3,65.6,27.6L65.6,27.6z
		 M65.6,27.6"/>
	<g>
		<defs>
			<rect id="SVGID_1_" x="19.5" y="9" width="76.9" height="82"/>
		</defs>
		<clipPath id="SVGID_2_">
			<use xlink:href="#SVGID_1_"  style="overflow:visible;"/>
		</clipPath>
		<path class="st0" d="M73.5,37.3c0.6,0.5,1.3,0.7,2,0.7c1,0,2-0.5,2.6-1.3c2-2.6,3-5.7,3-9c0-3.3-1.1-6.6-3.2-9.2
			c-1.1-1.4-3.2-1.6-4.6-0.5c-1.4,1.1-1.6,3.2-0.5,4.6c1.2,1.4,1.8,3.2,1.8,5.1c0,1.8-0.6,3.5-1.7,5C71.7,34.1,72.1,36.2,73.5,37.3
			L73.5,37.3z M73.5,37.3"/>
		<path class="st0" d="M85.7,45.4c0.6,0.5,1.3,0.7,2,0.7c1,0,2-0.5,2.6-1.3c3.8-4.9,5.8-10.8,5.8-17.1c0-6.4-2.1-12.5-6.1-17.5
			c-1.1-1.4-3.2-1.6-4.6-0.5c-1.4,1.1-1.6,3.2-0.5,4.6c3,3.8,4.7,8.5,4.7,13.4c0,4.8-1.5,9.3-4.4,13.1C84,42.3,84.3,44.4,85.7,45.4
			L85.7,45.4z M85.7,45.4"/>
		<path class="st0" d="M42.2,17.9c-1.4-1.1-3.5-0.9-4.6,0.5c-2,2.6-3.2,5.8-3.2,9.2c0,3.3,1.1,6.4,3,9c0.7,0.9,1.6,1.3,2.6,1.3
			c0.7,0,1.4-0.2,2-0.7c1.4-1.1,1.7-3.1,0.6-4.6c-1.1-1.4-1.7-3.1-1.7-5c0-1.9,0.6-3.7,1.8-5.1C43.9,21.1,43.7,19,42.2,17.9
			L42.2,17.9z M42.2,17.9"/>
		<path class="st0" d="M30.2,9.8c-1.4-1.1-3.5-0.9-4.6,0.5c-4,5-6.1,11-6.1,17.5c0,6.2,2,12.1,5.8,17.1c0.7,0.9,1.6,1.3,2.6,1.3
			c0.7,0,1.4-0.2,2-0.7c1.4-1.1,1.7-3.1,0.6-4.6c-2.9-3.8-4.4-8.3-4.4-13.1c0-4.9,1.6-9.5,4.7-13.4C31.8,12.9,31.6,10.9,30.2,9.8
			L30.2,9.8z M30.2,9.8"/>
	</g>
</g>
</svg>
