<?xml version="1.0" encoding="utf-8"?>
<!-- Generator: Adobe Illustrator 22.0.1, SVG Export Plug-In . SVG Version: 6.00 Build 0)  -->
<svg version="1.1" id="Capa_1" xmlns="http://www.w3.org/2000/svg" xmlns:xlink="http://www.w3.org/1999/xlink" x="0px" y="0px"
	 viewBox="0 0 111 98" style="enable-background:new 0 0 111 98;" xml:space="preserve">
<style type="text/css">
	.st0{clip-path:url(#SVGID_2_);}
	.st1{clip-path:url(#SVGID_4_);}
	.st2{clip-path:url(#SVGID_6_);}
	.st3{fill:#040006;}
	.st4{fill:#111011;}
	.st5{fill:#373735;}
	.st6{fill:#FBF6CF;}
	.st7{fill:#2F2F2F;}
	.st8{fill:#1B1A1B;}
	.st9{fill:#464747;}
	.st10{fill:#FFFFFF;}
	.st11{fill:none;stroke:#FFFFFF;stroke-width:3;stroke-miterlimit:10;}
	.st12{fill:#27292E;}
	.st13{fill:#545454;}
	.st14{fill:#272727;}
	.st15{fill:#7F7F7F;}
	.st16{fill:#1D1C1D;}
</style>
<g>
	<g>
		<g>
			<g>
				<g>
					<g>
						<path class="st4" d="M48.8,56.1c-3.2-1.9-8-3.1-13.4-3.1C30,53,25.2,54.2,22,56.1h-3.8v5.2c0,4.6,7.7,8.3,17.2,8.3
							s17.2-3.7,17.2-8.3v-5.2H48.8z"/>
						<g>
							<g>
								<g>
									<g>
										<g>
											<ellipse class="st5" cx="35.4" cy="56.1" rx="17.2" ry="8.3"/>
										</g>
									</g>
								</g>
								<path class="st6" d="M29.8,57.7c0.8,0.2,1.5,0.3,2.2,0.4c0.7,0.1,1.2,0.1,1.7,0.1c0.4,0,0.8,0,1.1-0.1
									c0.3-0.1,0.4-0.2,0.4-0.4c0,0,0-0.1,0-0.1c0,0-0.1-0.1-0.1-0.1c0,0-0.1-0.1-0.2-0.1c-0.1-0.1-0.2-0.1-0.2-0.1
									c-0.1,0-0.3-0.1-0.8-0.4c-1.3-0.6-2.1-1-2.6-1.3c-0.3-0.2-0.6-0.4-0.8-0.6c-0.2-0.2-0.3-0.5-0.3-0.7c0-0.2,0.1-0.3,0.2-0.5
									c0.1-0.2,0.3-0.3,0.5-0.5c0.2-0.2,0.5-0.3,0.7-0.4c0.3-0.1,0.6-0.2,1-0.3c0.3-0.1,0.9-0.2,1.6-0.2c0-0.1,0-0.2,0-0.2l0-0.4
									v-0.7c0.9,0,1.6,0,2.2,0c0.6,0,1.4,0,2.2,0c0,0.4-0.1,0.7-0.1,0.7v0.5c0.8,0.1,1.6,0.1,2.3,0.2c0.1,0.6,0.1,1.3,0.2,1.9
									c-0.6-0.1-1.2-0.2-1.8-0.3c-0.5-0.1-1-0.1-1.4-0.1c-0.4,0-0.7,0-1,0.1c-0.3,0.1-0.4,0.2-0.4,0.3c0,0.1,0.1,0.2,0.2,0.3
									c0.2,0.1,0.4,0.2,0.7,0.4c1,0.5,1.8,0.8,2.3,1.1c0.5,0.3,0.8,0.5,1,0.8c0.2,0.3,0.3,0.5,0.3,0.7c0,0.2-0.1,0.4-0.2,0.6
									c-0.1,0.2-0.3,0.3-0.5,0.5c-0.2,0.1-0.4,0.3-0.7,0.4c-0.3,0.1-0.6,0.2-0.8,0.3c-0.3,0.1-0.7,0.2-1.3,0.3l0,0.7
									c0,0.2,0,0.5,0,0.7c-0.9,0-1.6,0-2.1,0c-0.5,0-1.3,0-2.3,0c0-0.3,0.1-0.6,0.1-1V60c-0.6,0-1.2-0.1-1.6-0.1
									c-0.4,0-1-0.1-1.6-0.2C29.9,58.7,29.9,58,29.8,57.7z"/>
							</g>
						</g>
					</g>
					<g>
						<path class="st4" d="M48.8,49.5c-3.2-1.9-8-3.1-13.4-3.1c-5.4,0-10.2,1.2-13.4,3.1h-3.8v5.2c0,4.6,7.7,8.3,17.2,8.3
							s17.2-3.7,17.2-8.3v-5.2H48.8z"/>
						<g>
							<g>
								<g>
									<g>
										<g>
											<ellipse class="st5" cx="35.4" cy="49.5" rx="17.2" ry="8.3"/>
										</g>
									</g>
								</g>
								<path class="st6" d="M29.8,51.1c0.8,0.2,1.5,0.3,2.2,0.4c0.7,0.1,1.2,0.1,1.7,0.1c0.4,0,0.8,0,1.1-0.1
									c0.3-0.1,0.4-0.2,0.4-0.4c0,0,0-0.1,0-0.1c0,0-0.1-0.1-0.1-0.1c0,0-0.1-0.1-0.2-0.1c-0.1-0.1-0.2-0.1-0.2-0.1
									c-0.1,0-0.3-0.1-0.8-0.4c-1.3-0.6-2.1-1-2.6-1.3c-0.3-0.2-0.6-0.4-0.8-0.6c-0.2-0.2-0.3-0.5-0.3-0.7c0-0.2,0.1-0.3,0.2-0.5
									c0.1-0.2,0.3-0.3,0.5-0.5c0.2-0.2,0.5-0.3,0.7-0.4c0.3-0.1,0.6-0.2,1-0.3c0.3-0.1,0.9-0.2,1.6-0.2c0-0.1,0-0.2,0-0.2l0-0.4
									v-0.7c0.9,0,1.6,0,2.2,0c0.6,0,1.4,0,2.2,0c0,0.4-0.1,0.7-0.1,0.7v0.5c0.8,0.1,1.6,0.1,2.3,0.2c0.1,0.6,0.1,1.3,0.2,1.9
									c-0.6-0.1-1.2-0.2-1.8-0.3c-0.5-0.1-1-0.1-1.4-0.1c-0.4,0-0.7,0-1,0.1c-0.3,0.1-0.4,0.2-0.4,0.3c0,0.1,0.1,0.2,0.2,0.3
									c0.2,0.1,0.4,0.2,0.7,0.4c1,0.5,1.8,0.8,2.3,1.1c0.5,0.3,0.8,0.5,1,0.8c0.2,0.3,0.3,0.5,0.3,0.7c0,0.2-0.1,0.4-0.2,0.6
									c-0.1,0.2-0.3,0.3-0.5,0.5c-0.2,0.1-0.4,0.3-0.7,0.4c-0.3,0.1-0.6,0.2-0.8,0.3c-0.3,0.1-0.7,0.2-1.3,0.3l0,0.7
									c0,0.2,0,0.5,0,0.7c-0.9,0-1.6,0-2.1,0c-0.5,0-1.3,0-2.3,0c0-0.3,0.1-0.6,0.1-1v-0.2c-0.6,0-1.2-0.1-1.6-0.1
									c-0.4,0-1-0.1-1.6-0.2C29.9,52.1,29.9,51.5,29.8,51.1z"/>
							</g>
						</g>
					</g>
					<g>
						<path class="st4" d="M48.8,42.9c-3.2-1.9-8-3.1-13.4-3.1c-5.4,0-10.2,1.2-13.4,3.1h-3.8v5.2c0,4.6,7.7,8.3,17.2,8.3
							s17.2-3.7,17.2-8.3v-5.2H48.8z"/>
						<g>
							<g>
								<g>
									<ellipse class="st5" cx="35.4" cy="42.9" rx="17.2" ry="8.3"/>
								</g>
								<path class="st6" d="M29.8,44.5c0.8,0.2,1.5,0.3,2.2,0.4c0.7,0.1,1.2,0.1,1.7,0.1c0.4,0,0.8,0,1.1-0.1
									c0.3-0.1,0.4-0.2,0.4-0.4c0,0,0-0.1,0-0.1c0,0-0.1-0.1-0.1-0.1c0,0-0.1-0.1-0.2-0.1c-0.1-0.1-0.2-0.1-0.2-0.1
									c-0.1,0-0.3-0.1-0.8-0.4c-1.3-0.6-2.1-1-2.6-1.3c-0.3-0.2-0.6-0.4-0.8-0.6c-0.2-0.2-0.3-0.5-0.3-0.7c0-0.2,0.1-0.3,0.2-0.5
									c0.1-0.2,0.3-0.3,0.5-0.5c0.2-0.2,0.5-0.3,0.7-0.4c0.3-0.1,0.6-0.2,1-0.3c0.3-0.1,0.9-0.2,1.6-0.2c0-0.1,0-0.2,0-0.2l0-0.4
									v-0.7c0.9,0,1.6,0,2.2,0c0.6,0,1.4,0,2.2,0c0,0.4-0.1,0.7-0.1,0.7V39c0.8,0.1,1.6,0.1,2.3,0.2c0.1,0.6,0.1,1.3,0.2,1.9
									c-0.6-0.1-1.2-0.2-1.8-0.3c-0.5-0.1-1-0.1-1.4-0.1c-0.4,0-0.7,0-1,0.1c-0.3,0.1-0.4,0.2-0.4,0.3c0,0.1,0.1,0.2,0.2,0.3
									c0.2,0.1,0.4,0.2,0.7,0.4c1,0.5,1.8,0.8,2.3,1.1c0.5,0.3,0.8,0.5,1,0.8c0.2,0.3,0.3,0.5,0.3,0.7c0,0.2-0.1,0.4-0.2,0.6
									c-0.1,0.2-0.3,0.3-0.5,0.5c-0.2,0.1-0.4,0.3-0.7,0.4c-0.3,0.1-0.6,0.2-0.8,0.3c-0.3,0.1-0.7,0.2-1.3,0.3l0,0.7
									c0,0.2,0,0.5,0,0.7c-0.9,0-1.6,0-2.1,0c-0.5,0-1.3,0-2.3,0c0-0.3,0.1-0.6,0.1-1v-0.2c-0.6,0-1.2-0.1-1.6-0.1
									c-0.4,0-1-0.1-1.6-0.2C29.9,45.5,29.9,44.9,29.8,44.5z"/>
							</g>
						</g>
					</g>
					<g>
						<path class="st4" d="M48.8,36.4c-3.2-1.9-8-3.1-13.4-3.1c-5.4,0-10.2,1.2-13.4,3.1h-3.8v5.2c0,4.6,7.7,8.3,17.2,8.3
							s17.2-3.7,17.2-8.3v-5.2H48.8z"/>
						<g>
							<g>
								<g>
									<ellipse class="st5" cx="35.4" cy="36.4" rx="17.2" ry="8.3"/>
								</g>
								<path class="st6" d="M29.8,38c0.8,0.2,1.5,0.3,2.2,0.4c0.7,0.1,1.2,0.1,1.7,0.1c0.4,0,0.8,0,1.1-0.1
									c0.3-0.1,0.4-0.2,0.4-0.4c0,0,0-0.1,0-0.1c0,0-0.1-0.1-0.1-0.1c0,0-0.1-0.1-0.2-0.1c-0.1-0.1-0.2-0.1-0.2-0.1
									c-0.1,0-0.3-0.1-0.8-0.4c-1.3-0.6-2.1-1-2.6-1.3c-0.3-0.2-0.6-0.4-0.8-0.6c-0.2-0.2-0.3-0.5-0.3-0.7c0-0.2,0.1-0.3,0.2-0.5
									c0.1-0.2,0.3-0.3,0.5-0.5c0.2-0.2,0.5-0.3,0.7-0.4c0.3-0.1,0.6-0.2,1-0.3c0.3-0.1,0.9-0.2,1.6-0.2c0-0.1,0-0.2,0-0.2l0-0.4
									v-0.7c0.9,0,1.6,0,2.2,0c0.6,0,1.4,0,2.2,0c0,0.4-0.1,0.7-0.1,0.7v0.5c0.8,0.1,1.6,0.1,2.3,0.2c0.1,0.6,0.1,1.3,0.2,1.9
									c-0.6-0.1-1.2-0.2-1.8-0.3c-0.5-0.1-1-0.1-1.4-0.1c-0.4,0-0.7,0-1,0.1c-0.3,0.1-0.4,0.2-0.4,0.3c0,0.1,0.1,0.2,0.2,0.3
									c0.2,0.1,0.4,0.2,0.7,0.4c1,0.5,1.8,0.8,2.3,1.1c0.5,0.3,0.8,0.5,1,0.8c0.2,0.3,0.3,0.5,0.3,0.7c0,0.2-0.1,0.4-0.2,0.6
									c-0.1,0.2-0.3,0.3-0.5,0.5s-0.4,0.3-0.7,0.4c-0.3,0.1-0.6,0.2-0.8,0.3c-0.3,0.1-0.7,0.2-1.3,0.3l0,0.7c0,0.2,0,0.5,0,0.7
									c-0.9,0-1.6,0-2.1,0c-0.5,0-1.3,0-2.3,0c0-0.3,0.1-0.6,0.1-1v-0.2c-0.6,0-1.2-0.1-1.6-0.1c-0.4,0-1-0.1-1.6-0.2
									C29.9,39,29.9,38.3,29.8,38z"/>
							</g>
						</g>
					</g>
					<g>
						<path class="st4" d="M48.8,29.8c-3.2-1.9-8-3.1-13.4-3.1c-5.4,0-10.2,1.2-13.4,3.1h-3.8V35c0,4.6,7.7,8.3,17.2,8.3
							s17.2-3.7,17.2-8.3v-5.2H48.8z"/>
						<g>
							<g>
								<g>
									<g>
										<path class="st5" d="M52.6,29.8c0,4.6-7.7,8.2-17.2,8.2c-9.5,0-17.2-3.7-17.2-8.2c0-4.6,7.7-8.3,17.2-8.3
											C44.9,21.6,52.6,25.2,52.6,29.8z"/>
									</g>
								</g>
								<path class="st6" d="M35.3,25.8 M35.9,25.9c0.8,0.1,1.6,0.1,2.3,0.2c0.1,0.6,0.1,1.3,0.2,1.9c-0.6-0.1-1.2-0.2-1.8-0.3
									c-0.5-0.1-1-0.1-1.4-0.1c-0.4,0-0.7,0-1,0.1c-0.3,0.1-0.4,0.2-0.4,0.3c0,0.1,0.1,0.2,0.2,0.3c0.2,0.1,0.4,0.2,0.7,0.4
									c1,0.5,1.8,0.8,2.3,1.1c0.5,0.3,0.8,0.5,1,0.8c0.2,0.3,0.3,0.5,0.3,0.7c0,0.2-0.1,0.4-0.2,0.6c-0.1,0.2-0.3,0.3-0.5,0.5
									s-0.4,0.3-0.7,0.4c-0.3,0.1-0.6,0.2-0.8,0.3c-0.3,0.1-0.7,0.2-1.3,0.3l0,0c-0.3,0.1,0,0-0.4,0.1c-0.9,0-1.2,0.1-1.7,0.1
									c-0.5,0-0.4,0-1.4,0c-0.1,0-0.3,0-0.5,0l-0.3,0c-0.6,0-1.2-0.1-1.6-0.1c-0.4,0-1-0.1-1.6-0.2c-0.1-1-0.1-1.6-0.2-2
									c0.8,0.2,1.5,0.3,2.2,0.4c0.7,0.1,1.2,0.1,1.7,0.1c0.4,0,0.8,0,1.1-0.1c0.3-0.1,0.4-0.2,0.4-0.4c0,0,0-0.1,0-0.1
									c0,0-0.1-0.1-0.1-0.1c0,0-0.1-0.1-0.2-0.1c-0.1-0.1-0.2-0.1-0.2-0.1c-0.1,0-0.3-0.1-0.8-0.4c-1.3-0.6-2.1-1-2.6-1.3
									c-0.3-0.2-0.6-0.4-0.8-0.6c-0.2-0.2-0.3-0.5-0.3-0.7c0-0.2,0.1-0.3,0.2-0.5c0.1-0.2,0.3-0.3,0.5-0.5
									c0.2-0.2,0.5-0.3,0.7-0.4c0.3-0.1,0.6-0.2,1-0.3c0.3-0.1,0.9-0.2,1.6-0.2 M36.2,25.7"/>
							</g>
						</g>
					</g>
				</g>
				<g>
					<g>
						<path class="st4" d="M75.9,61.7c-3.2-1.9-8-3.1-13.4-3.1c-5.4,0-10.2,1.2-13.4,3.1h-3.8v5.2c0,4.6,7.7,8.3,17.2,8.3
							s17.2-3.7,17.2-8.3v-5.2H75.9z"/>
						<g>
							<g>
								<g>
									<g>
										<g>
											<ellipse class="st5" cx="62.5" cy="61.7" rx="17.2" ry="8.3"/>
										</g>
									</g>
								</g>
								<path class="st6" d="M56.9,63.3c0.8,0.2,1.5,0.3,2.2,0.4c0.7,0.1,1.2,0.1,1.7,0.1c0.4,0,0.8,0,1.1-0.1
									c0.3-0.1,0.4-0.2,0.4-0.4c0,0,0-0.1,0-0.1c0,0-0.1-0.1-0.1-0.1c0,0-0.1-0.1-0.2-0.1c-0.1-0.1-0.2-0.1-0.2-0.1
									c-0.1,0-0.3-0.1-0.8-0.4c-1.3-0.6-2.1-1-2.6-1.3c-0.3-0.2-0.6-0.4-0.8-0.6c-0.2-0.2-0.3-0.5-0.3-0.7c0-0.2,0.1-0.3,0.2-0.5
									c0.1-0.2,0.3-0.3,0.5-0.5c0.2-0.2,0.5-0.3,0.7-0.4c0.3-0.1,0.6-0.2,1-0.3c0.3-0.1,0.9-0.2,1.6-0.2c0-0.1,0-0.2,0-0.2l0-0.4
									v-0.7c0.9,0,1.6,0,2.2,0c0.6,0,1.4,0,2.2,0c0,0.4-0.1,0.7-0.1,0.7v0.5c0.8,0.1,1.6,0.1,2.3,0.2c0.1,0.6,0.1,1.3,0.2,1.9
									c-0.6-0.1-1.2-0.2-1.8-0.3c-0.5-0.1-1-0.1-1.4-0.1c-0.4,0-0.7,0-1,0.1c-0.3,0.1-0.4,0.2-0.4,0.3c0,0.1,0.1,0.2,0.2,0.3
									c0.2,0.1,0.4,0.2,0.7,0.4c1,0.5,1.8,0.8,2.3,1.1c0.5,0.3,0.8,0.5,1,0.8c0.2,0.3,0.3,0.5,0.3,0.7c0,0.2-0.1,0.4-0.2,0.6
									c-0.1,0.2-0.3,0.3-0.5,0.5c-0.2,0.1-0.4,0.3-0.7,0.4c-0.3,0.1-0.6,0.2-0.8,0.3c-0.3,0.1-0.7,0.2-1.3,0.3l0,0.7
									c0,0.2,0,0.5,0,0.7c-0.9,0-1.6,0-2.1,0c-0.5,0-1.3,0-2.3,0c0-0.3,0.1-0.6,0.1-1v-0.2c-0.6,0-1.2-0.1-1.6-0.1
									c-0.4,0-1-0.1-1.6-0.2C57,64.3,57,63.7,56.9,63.3z"/>
							</g>
						</g>
					</g>
					<g>
						<path class="st4" d="M75.9,55.2c-3.2-1.9-8-3.1-13.4-3.1c-5.4,0-10.2,1.2-13.4,3.1h-3.8v5.2c0,4.6,7.7,8.3,17.2,8.3
							s17.2-3.7,17.2-8.3v-5.2H75.9z"/>
						<g>
							<g>
								<g>
									<g>
										<g>
											<ellipse class="st5" cx="62.5" cy="55.2" rx="17.2" ry="8.3"/>
										</g>
									</g>
								</g>
								<path class="st6" d="M56.9,56.8c0.8,0.2,1.5,0.3,2.2,0.4c0.7,0.1,1.2,0.1,1.7,0.1c0.4,0,0.8,0,1.1-0.1
									c0.3-0.1,0.4-0.2,0.4-0.4c0,0,0-0.1,0-0.1c0,0-0.1-0.1-0.1-0.1c0,0-0.1-0.1-0.2-0.1c-0.1-0.1-0.2-0.1-0.2-0.1
									c-0.1,0-0.3-0.1-0.8-0.4c-1.3-0.6-2.1-1-2.6-1.3c-0.3-0.2-0.6-0.4-0.8-0.6c-0.2-0.2-0.3-0.5-0.3-0.7c0-0.2,0.1-0.3,0.2-0.5
									c0.1-0.2,0.3-0.3,0.5-0.5c0.2-0.2,0.5-0.3,0.7-0.4c0.3-0.1,0.6-0.2,1-0.3c0.3-0.1,0.9-0.2,1.6-0.2c0-0.1,0-0.2,0-0.2l0-0.4
									V50c0.9,0,1.6,0,2.2,0c0.6,0,1.4,0,2.2,0c0,0.4-0.1,0.7-0.1,0.7v0.5c0.8,0.1,1.6,0.1,2.3,0.2c0.1,0.6,0.1,1.3,0.2,1.9
									c-0.6-0.1-1.2-0.2-1.8-0.3c-0.5-0.1-1-0.1-1.4-0.1c-0.4,0-0.7,0-1,0.1c-0.3,0.1-0.4,0.2-0.4,0.3c0,0.1,0.1,0.2,0.2,0.3
									c0.2,0.1,0.4,0.2,0.7,0.4c1,0.5,1.8,0.8,2.3,1.1c0.5,0.3,0.8,0.5,1,0.8c0.2,0.3,0.3,0.5,0.3,0.7c0,0.2-0.1,0.4-0.2,0.6
									s-0.3,0.3-0.5,0.5c-0.2,0.1-0.4,0.3-0.7,0.4c-0.3,0.1-0.6,0.2-0.8,0.3c-0.3,0.1-0.7,0.2-1.3,0.3l0,0.7c0,0.2,0,0.5,0,0.7
									c-0.9,0-1.6,0-2.1,0c-0.5,0-1.3,0-2.3,0c0-0.3,0.1-0.6,0.1-1v-0.2c-0.6,0-1.2-0.1-1.6-0.1c-0.4,0-1-0.1-1.6-0.2
									C57,57.8,57,57.1,56.9,56.8z"/>
							</g>
						</g>
					</g>
					<g>
						<path class="st4" d="M75.9,48.6c-3.2-1.9-8-3.1-13.4-3.1c-5.4,0-10.2,1.2-13.4,3.1h-3.8v5.2c0,4.6,7.7,8.3,17.2,8.3
							s17.2-3.7,17.2-8.3v-5.2H75.9z"/>
						<g>
							<g>
								<g>
									<g>
										<g>
											<ellipse class="st5" cx="62.5" cy="48.6" rx="17.2" ry="8.3"/>
										</g>
									</g>
								</g>
								<path class="st5" d="M56.9,50.2c0.8,0.2,1.5,0.3,2.2,0.4c0.7,0.1,1.2,0.1,1.7,0.1c0.4,0,0.8,0,1.1-0.1
									c0.3-0.1,0.4-0.2,0.4-0.4c0,0,0-0.1,0-0.1c0,0-0.1-0.1-0.1-0.1c0,0-0.1-0.1-0.2-0.1c-0.1-0.1-0.2-0.1-0.2-0.1
									c-0.1,0-0.3-0.1-0.8-0.4c-1.3-0.6-2.1-1-2.6-1.3c-0.3-0.2-0.6-0.4-0.8-0.6c-0.2-0.2-0.3-0.5-0.3-0.7c0-0.2,0.1-0.3,0.2-0.5
									c0.1-0.2,0.3-0.3,0.5-0.5c0.2-0.2,0.5-0.3,0.7-0.4c0.3-0.1,0.6-0.2,1-0.3c0.3-0.1,0.9-0.2,1.6-0.2c0-0.1,0-0.2,0-0.2l0-0.4
									v-0.7c0.9,0,1.6,0,2.2,0c0.6,0,1.4,0,2.2,0c0,0.4-0.1,0.7-0.1,0.7v0.5c0.8,0.1,1.6,0.1,2.3,0.2c0.1,0.6,0.1,1.3,0.2,1.9
									c-0.6-0.1-1.2-0.2-1.8-0.3c-0.5-0.1-1-0.1-1.4-0.1c-0.4,0-0.7,0-1,0.1c-0.3,0.1-0.4,0.2-0.4,0.3c0,0.1,0.1,0.2,0.2,0.3
									c0.2,0.1,0.4,0.2,0.7,0.4c1,0.5,1.8,0.8,2.3,1.1c0.5,0.3,0.8,0.5,1,0.8c0.2,0.3,0.3,0.5,0.3,0.7c0,0.2-0.1,0.4-0.2,0.6
									c-0.1,0.2-0.3,0.3-0.5,0.5c-0.2,0.1-0.4,0.3-0.7,0.4c-0.3,0.1-0.6,0.2-0.8,0.3c-0.3,0.1-0.7,0.2-1.3,0.3l0,0.7
									c0,0.2,0,0.5,0,0.7c-0.9,0-1.6,0-2.1,0c-0.5,0-1.3,0-2.3,0c0-0.3,0.1-0.6,0.1-1v-0.2c-0.6,0-1.2-0.1-1.6-0.1
									c-0.4,0-1-0.1-1.6-0.2C57,51.2,57,50.5,56.9,50.2z"/>
							</g>
						</g>
					</g>
				</g>
				<g>
					<path class="st4" d="M42.5,69.5c-3.2-1.9-8-3.1-13.4-3.1c-5.4,0-10.2,1.2-13.4,3.1h-3.8v5.2c0,4.6,7.7,8.3,17.2,8.3
						s17.2-3.7,17.2-8.3v-5.2H42.5z"/>
					<g>
						<g>
							<g>
								<ellipse class="st5" cx="29.1" cy="69.5" rx="17.2" ry="8.3"/>
							</g>
						</g>
					</g>
				</g>
			</g>
		</g>
	</g>
	<g>
		
			<rect x="88.4" y="55.4" transform="matrix(0.7071 -0.7071 0.7071 0.7071 -22.8031 84.4147)" class="st7" width="4.1" height="28.6"/>
		<path class="st8" d="M87.8,67.1L87.8,67.1c-1.7,1.7-1.7,4.4,0,6.1l8.6,8.6c1.7,1.7,4.4,1.7,6.1,0l0,0c1.7-1.7,1.7-4.4,0-6.1
			l-8.6-8.6C92.2,65.4,89.5,65.4,87.8,67.1z"/>
		<path class="st9" d="M85.8,65L85.8,65c-1.9,1.9-5,1.9-7,0l-0.1-0.1c-1.9-1.9-1.9-5,0-7l0,0c1.9-1.9,5-1.9,7,0l0.1,0.1
			C87.7,60,87.7,63.1,85.8,65z"/>
		<circle class="st8" cx="67.3" cy="46.5" r="22.1"/>
		<circle class="st10" cx="67.3" cy="46.5" r="16.6"/>
	</g>
</g>
<line class="st11" x1="41.9" y1="26.3" x2="40.2" y2="33.7"/>
<line class="st11" x1="36" y1="66.9" x2="34.3" y2="74.4"/>
<path class="st6" d="M29.7,66.1 M30.3,66.1c0.8,0.1,1.6,0.1,2.3,0.2c0.1,0.6,0.1,1.3,0.2,1.9c-0.6-0.1-1.2-0.2-1.8-0.3
	c-0.5-0.1-1-0.1-1.4-0.1c-0.4,0-0.7,0-1,0.1c-0.3,0.1-0.4,0.2-0.4,0.3c0,0.1,0.1,0.2,0.2,0.3s0.4,0.2,0.7,0.4c1,0.5,1.8,0.8,2.3,1.1
	c0.5,0.3,0.8,0.5,1,0.8c0.2,0.3,0.3,0.5,0.3,0.7c0,0.2-0.1,0.4-0.2,0.6c-0.1,0.2-0.3,0.3-0.5,0.5s-0.4,0.3-0.7,0.4
	c-0.3,0.1-0.6,0.2-0.8,0.3c-0.3,0.1-0.7,0.2-1.3,0.3l0,0c-0.3,0.1,0,0-0.4,0.1c-0.9,0-1.2,0.1-1.7,0.1c-0.5,0-0.4,0-1.4,0
	c-0.1,0-0.3,0-0.5,0l-0.3,0c-0.6,0-1.2-0.1-1.6-0.1c-0.4,0-1-0.1-1.6-0.2c-0.1-1-0.1-1.6-0.2-2c0.8,0.2,1.5,0.3,2.2,0.4
	c0.7,0.1,1.2,0.1,1.7,0.1c0.4,0,0.8,0,1.1-0.1c0.3-0.1,0.4-0.2,0.4-0.4c0,0,0-0.1,0-0.1c0,0-0.1-0.1-0.1-0.1c0,0-0.1-0.1-0.2-0.1
	c-0.1-0.1-0.2-0.1-0.2-0.1c-0.1,0-0.3-0.1-0.8-0.4c-1.3-0.6-2.1-1-2.6-1.3c-0.3-0.2-0.6-0.4-0.8-0.6c-0.2-0.2-0.3-0.5-0.3-0.7
	c0-0.2,0.1-0.3,0.2-0.5c0.1-0.2,0.3-0.3,0.5-0.5c0.2-0.2,0.5-0.3,0.7-0.4c0.3-0.1,0.6-0.2,1-0.3c0.3-0.1,0.9-0.2,1.6-0.2 M30.6,65.9
	"/>
<rect x="42.4" y="32" class="st10" width="1.3" height="1.3"/>
<rect x="36.8" y="72.8" class="st10" width="1.3" height="1.3"/>
</svg>
