<?xml version="1.0" encoding="utf-8"?>
<!-- Generator: Adobe Illustrator 22.0.1, SVG Export Plug-In . SVG Version: 6.00 Build 0)  -->
<svg version="1.1" id="Capa_1" xmlns="http://www.w3.org/2000/svg" xmlns:xlink="http://www.w3.org/1999/xlink" x="0px" y="0px"
	 viewBox="0 0 111 98" style="enable-background:new 0 0 111 98;" xml:space="preserve">
<style type="text/css">
	.st0{clip-path:url(#SVGID_2_);}
	.st1{clip-path:url(#SVGID_4_);}
	.st2{clip-path:url(#SVGID_6_);}
	.st3{fill:#040006;}
	.st4{fill:#111011;}
	.st5{fill:#373735;}
	.st6{fill:#FBF6CF;}
	.st7{fill:#2F2F2F;}
	.st8{fill:#1B1A1B;}
	.st9{fill:#464747;}
	.st10{fill:#FFFFFF;}
	.st11{fill:none;stroke:#FFFFFF;stroke-width:3;stroke-miterlimit:10;}
	.st12{fill:#27292E;}
	.st13{fill:#545454;}
	.st14{fill:#272727;}
	.st15{fill:#7F7F7F;}
	.st16{fill:#1D1C1D;}
</style>
<g>
	<g>
		<defs>
			<rect id="SVGID_5_" x="14.6" y="9" width="84.4" height="80"/>
		</defs>
		<clipPath id="SVGID_2_">
			<use xlink:href="#SVGID_5_"  style="overflow:visible;"/>
		</clipPath>
		<path class="st0" d="M98.3,24.1C97.8,23.4,97,23,96.1,23H35.3c-0.1,0-0.2,0-0.3,0l-2.5-7.2c-0.3-0.7-0.8-1.3-1.6-1.6l-12.6-5
			c-1.4-0.5-3,0.1-3.5,1.5c-0.5,1.4,0.1,3,1.5,3.5l11.5,4.5l14,40.4c-0.6,0.2-1.1,0.7-1.4,1.4l-4.1,11.3c-0.3,0.7-0.1,1.5,0.3,2.1
			c0.4,0.6,1.1,1,1.8,1h2.1c-1.3,1.4-2.1,3.3-2.1,5.4c0,4.5,3.6,8.1,8.1,8.1c4.5,0,8.1-3.6,8.1-8.1c0-2.1-0.8-4-2.1-5.4h17.7
			c-1.3,1.4-2.1,3.3-2.1,5.4c0,4.5,3.6,8.1,8.1,8.1c4.5,0,8.1-3.6,8.1-8.1c0-2.1-0.8-4-2.1-5.4h2.5c1.2,0,2.3-1,2.3-2.3
			c0-1.2-1-2.3-2.3-2.3H41.7l2.5-7c0.3,0.1,0.7,0.2,1,0.2h39.7c1.2,0,2.2-0.8,2.6-1.9l11.3-35.2C99,25.7,98.8,24.8,98.3,24.1
			L98.3,24.1z M46.6,83.8c-2,0-3.6-1.6-3.6-3.6c0-2,1.6-3.6,3.6-3.6c2,0,3.6,1.6,3.6,3.6C50.2,82.2,48.6,83.8,46.6,83.8L46.6,83.8z
			 M76.3,83.8c-2,0-3.6-1.6-3.6-3.6c0-2,1.6-3.6,3.6-3.6c2,0,3.6,1.6,3.6,3.6C79.9,82.2,78.3,83.8,76.3,83.8L76.3,83.8z M90.5,34.5
			H76.7v-6.1h15.7L90.5,34.5z M86.5,46.9h-9.8v-7h12.1L86.5,46.9z M58.8,46.9v-7h12.5v7H58.8z M71.3,52.3v5.9H58.8v-5.9H71.3z
			 M40.8,39.9h12.6v7H43.2L40.8,39.9z M58.8,34.5v-6.1h12.5v6.1H58.8z M53.4,28.4v6.1H38.9l-2.1-6.1H53.4z M45.1,52.3h8.3v5.9h-6.3
			L45.1,52.3z M76.7,58.1v-5.9h8.1l-1.9,5.9H76.7z M76.7,58.1"/>
	</g>
</g>
</svg>
