<?xml version="1.0" encoding="utf-8"?>
<!-- Generator: Adobe Illustrator 22.0.1, SVG Export Plug-In . SVG Version: 6.00 Build 0)  -->
<svg version="1.1" id="Capa_1" xmlns="http://www.w3.org/2000/svg" xmlns:xlink="http://www.w3.org/1999/xlink" x="0px" y="0px"
	 viewBox="0 0 111 98" style="enable-background:new 0 0 111 98;" xml:space="preserve">
<style type="text/css">
	.st0{clip-path:url(#SVGID_2_);}
	.st1{clip-path:url(#SVGID_4_);}
	.st2{clip-path:url(#SVGID_6_);}
	.st3{fill:#040006;}
	.st4{fill:#111011;}
	.st5{fill:#373735;}
	.st6{fill:#FBF6CF;}
	.st7{fill:#2F2F2F;}
	.st8{fill:#1B1A1B;}
	.st9{fill:#464747;}
	.st10{fill:#FFFFFF;}
	.st11{fill:none;stroke:#FFFFFF;stroke-width:3;stroke-miterlimit:10;}
	.st12{fill:#27292E;}
	.st13{fill:#545454;}
	.st14{fill:#272727;}
	.st15{fill:#7F7F7F;}
	.st16{fill:#1D1C1D;}
</style>
<g>
	<g>
		<g>
			<path class="st3" d="M60,55l-4.9-6.7L50.2,55c-11.9,16.3-13.9,27.5-6,33.3c4.3,3.2,9.8,3.4,10.9,3.4h0.1c1.1,0,6.6-0.2,10.9-3.4
				C73.9,82.5,71.9,71.3,60,55z M48.9,87c-4.4-1.6-6.2-6-5.7-10c0.1-1.3,2.5-1.4,2.4,0c-0.3,2.9,0.6,6.7,4,7.9
				C50.9,85.5,50.3,87.5,48.9,87z"/>
		</g>
	</g>
	<g>
		<g>
			<g>
				<path class="st3" d="M95.2,71.3c0-4.1-2.3-8.3-7.4-8.5c0,0-6.4,0-8.3,0c-0.2,0-0.4,0.2-0.4,0.4v4.2c0,0.1,0,0.2,0.1,0.3
					c0.1,0.1,0.2,0.1,0.3,0.1c1.3,0,5.5,0,6.4,0.1c1.9,0.2,4.2,1,4.2,3.4c0,2.3-2.1,3.1-3.9,3.4c-0.7,0.1-2.5,0.1-3.9,0.1
					c-0.3,0-0.6,0-0.8,0c-0.1,0-0.2,0-0.2-0.1c0-0.1-0.1-0.2,0-0.3l1-1.9c0.1-0.2,0-0.4-0.2-0.6l-1.1-0.7c-0.2-0.1-0.5-0.1-0.6,0.1
					l-3.9,5.7c-0.1,0.1-0.1,0.3,0,0.5l3.9,5.7c0.1,0.1,0.2,0.2,0.4,0.2c0.1,0,0.2,0,0.2-0.1l1.1-0.7c0.2-0.1,0.3-0.4,0.2-0.6l-1-1.9
					c0-0.1,0-0.2,0-0.3c0-0.1,0.1-0.1,0.2-0.1l4.9,0v0l0.1,0c0.1,0,0.1,0,0.2,0c0.1,0,0.1,0,0.2,0l0.1,0l0,0
					C91.6,79.7,95.2,75.9,95.2,71.3z"/>
			</g>
		</g>
	</g>
	<g>
		<g>
			<g>
				<path class="st3" d="M15.8,74c0,4.1,2.3,8.3,7.4,8.5c0,0,6.4,0,8.3,0c0.2,0,0.4-0.2,0.4-0.4V78c0-0.1,0-0.2-0.1-0.3
					c-0.1-0.1-0.2-0.1-0.3-0.1c-1.3,0-5.5,0-6.4-0.1c-1.9-0.2-4.2-1-4.2-3.4c0-2.3,2.1-3.1,3.9-3.4c0.7-0.1,2.5-0.1,3.9-0.1
					c0.3,0,0.6,0,0.8,0c0.1,0,0.2,0,0.2,0.1c0,0.1,0.1,0.2,0,0.3l-1,1.9c-0.1,0.2,0,0.4,0.2,0.6l1.1,0.7c0.2,0.1,0.5,0.1,0.6-0.1
					l3.9-5.7c0.1-0.1,0.1-0.3,0-0.5L30.5,62c-0.1-0.1-0.2-0.2-0.4-0.2c-0.1,0-0.2,0-0.2,0.1l-1.1,0.7c-0.2,0.1-0.3,0.4-0.2,0.6
					l1,1.9c0,0.1,0,0.2,0,0.3c0,0.1-0.1,0.1-0.2,0.1l-4.9,0v0l-0.1,0c-0.1,0-0.1,0-0.2,0c-0.1,0-0.1,0-0.2,0l-0.1,0l0,0
					C19.4,65.6,15.8,69.4,15.8,74z"/>
			</g>
		</g>
	</g>
</g>
<g>
	<g>
		<g>
			<g>
				<path class="st3" d="M61.3,21.8v-1.6c0-0.8-0.5-1.5-1-1.5h-4.2c-0.6,0-1-0.6-1-1.5v-4.2c0-0.8,0.5-1.5,1-1.5h5.7
					c0.6,0,1-0.6,1-1.5V6.5c0-0.8-0.5-1.5-1-1.5H43.7c-0.6,0-1,0.6-1,1.5v3.8c0,0.8,0.5,1.5,1,1.5h5.7c0.6,0,1,0.6,1,1.5v4.2
					c0,0.8-0.5,1.5-1,1.5h-4.1c-0.6,0-1,0.6-1,1.5v1.6c0,0.8-0.5,1.5-1,1.5h-6c0,0-11.6-0.4-12,30.2c0,0.8,0.5,1.5,1,1.5h8.4
					c0.5,0,1-0.6,1-1.4C35.9,50,36,41,37.9,41l5.4,0c0.6,0,1,0.7,1,1.5v1.2c0,0.8,0.5,1.5,1,1.5h14.6c0.6,0,1-0.6,1-1.5V43
					c0-0.8,0.5-1.5,1-1.5h21.9c0.6,0,1-0.6,1-1.5V24.7c0-0.8-0.5-1.5-1-1.5H62.3C61.8,23.3,61.3,22.6,61.3,21.8z"/>
			</g>
		</g>
	</g>
</g>
</svg>
