<?xml version="1.0" encoding="utf-8"?>
<!-- Generator: Adobe Illustrator 22.0.1, SVG Export Plug-In . SVG Version: 6.00 Build 0)  -->
<svg version="1.1" id="Capa_1" xmlns="http://www.w3.org/2000/svg" xmlns:xlink="http://www.w3.org/1999/xlink" x="0px" y="0px"
	 viewBox="0 0 111 98" style="enable-background:new 0 0 111 98;" xml:space="preserve">
<style type="text/css">
	.st0{clip-path:url(#SVGID_2_);}
	.st1{clip-path:url(#SVGID_4_);}
	.st2{clip-path:url(#SVGID_6_);}
	.st3{fill:#040006;}
	.st4{fill:#111011;}
	.st5{fill:#373735;}
	.st6{fill:#FBF6CF;}
	.st7{fill:#2F2F2F;}
	.st8{fill:#1B1A1B;}
	.st9{fill:#464747;}
	.st10{fill:#FFFFFF;}
	.st11{fill:none;stroke:#FFFFFF;stroke-width:3;stroke-miterlimit:10;}
	.st12{fill:#27292E;}
	.st13{fill:#545454;}
	.st14{fill:#272727;}
	.st15{fill:#7F7F7F;}
	.st16{fill:#1D1C1D;}
</style>
<path class="st3" d="M74.1,13.8c-2.4-4.1-8.8-4-12.8-3.7c-3,0.2-5.6,1.2-8.2,2.6c-1.3,0.7-2.7,1.3-4.2,1.9c-5.6-2-11.5-3.1-17.3-4.4
	c-3.4-0.8-8.3-3.4-11.8-1.5c-7.6,4.1,4.6,11,9.3,13.4c-3.4,1.5-6.7,3-10,4.7c-1.1-1.2-2.7-2.2-3.8-2.8c-1.6-0.9-4.5-1.8-5.7,0.2
	c-1,1.6,0.1,3.7,1,5.1c0.6,1,1.4,2.4,2.5,3.2c-1.8,0.8-4.4,2.9-3,4.7c2.7,3.5,8.7,0.8,12.1,0c7.4-1.7,14.7-4,21.9-6.3
	c2,3.5,5.2,6.6,7.3,10c1.2,2,4.3,5.6,7.1,4c2.2-1.3,2.5-4.1,2.5-6.4c0.1-3.7-0.9-8.1-2.2-11.8c3.9-1.1,7.8-2.2,11.5-4
	C73.5,21.1,76.1,17.2,74.1,13.8z"/>
<path class="st3" d="M100.9,59.7c-1.4-5.6-4.7-6.8-10.2-6.8c-9.8,0-19.6,0-29.4-0.2c-5-0.1-9.9-0.1-14.9,0.1
	c-3.3,0.1-6.4-0.7-9.7-0.1c-3.3,0.6-3.4,6.2-3.6,8.6c-0.4,5.8-1.6,13.5-0.1,19.1c1.1,4.1,4.2,4.3,8,4.3c0.6,2.4,2.7,4.6,5.1,4.7
	c2.9,0.2,4.8-2,5.5-4.5c0.7,0.5,1.6,0.5,2.4,0.3c0.1,0,0.2,0,0.3,0c1.5,0.5,3.2,0.5,5,0.5c3.4,0.2,7,0.1,10.5,0
	c4,0.2,7.8,0.1,11.9-0.5c0.7,0,1.4,0,2.1,0c0.9,1.9,2.9,3.3,5.2,3c2-0.2,3.3-1.7,3.8-3.5c0,0,0,0,0,0c3.2,0.1,6.8,1.8,7.6-2.1
	C101.7,76.1,102.5,66.2,100.9,59.7z M49.4,83.3c-0.1,1.4-1.1,3.1-2.6,3.5c-2.1,0.6-3.5-2.3-3.5-3.9c0-1.1,0.4-2.4,1.3-3.1
	c0.6-0.4,1.3-0.6,2.1-0.8c0.1,0.1,0.1,0.1,0.2,0.2C48.7,80.1,49.6,81.1,49.4,83.3z M44.2,68.5c-2.2-0.2-4.1-0.7-5.3-1.9
	c-1.2-2.5-0.2-6.8,0-9.9c3.4,1.1,6.6,0.6,10.2,0.3c0.6,0,1.1-0.1,1.7-0.1c-0.5,3.7-0.2,7.6,0.3,11.2C48.8,68.2,46.5,68.2,44.2,68.5z
	 M63.9,57.8c-0.8,1.6-0.6,3.9-0.6,5.6c0,1.7-0.2,3.8,0.2,5.4c-1.8,0-3.6-0.1-5.3-0.2c-1.3-0.1-2.6-0.2-3.8-0.3c0,0,0,0,0-0.1
	c0.2-3.7,0.9-7.6,0.5-11.3c3.1,0.1,6.1,0.3,9.2,0.6C64,57.7,63.9,57.7,63.9,57.8z M66.9,68.9c0.4-1.5,0.3-3.4,0.3-4.9
	c0.1-1.8,0.5-3.9,0.2-5.7c0-0.2-0.1-0.3-0.2-0.4c2.9,0.2,5.8,0.3,8.8,0.3c-0.2,1.3,0,2.8,0,4.1c0.1,2.2,0.2,4.3,0.3,6.5
	C73.3,68.8,70.1,68.9,66.9,68.9z M79.5,68.7c0.1-2.1,0.2-4.3,0.3-6.4c0.1-1.3,0.2-2.8,0-4.1c1.4,0,2.8,0,4.2,0c1,0.1,2,0.2,3,0.3
	c-0.8,2.4,0.3,6.6,0.3,8.5c0,0.6-0.1,1.2-0.1,1.8C84.6,68.6,82,68.6,79.5,68.7z M89.5,85.3c-0.5,0.5-1.2,0.5-1.8,0.4
	c-1.5-0.3-2.3-1.5-2.1-3c0.2-1.2,0.8-1.7,1.6-2.4c0.1-0.1,0.7-0.6,1.1-1c0.5,0.2,1,0.2,1.5,0.5c0.5,0.3,0.8,1.1,0.9,1.7
	C90.9,82.8,90.5,84.4,89.5,85.3z M95.3,71.3c0,1.8-2.4,0.8-3.6,0.6c-1.5-0.2-2.2,0-2.4-1.3c0.4-0.4,0.3-1.1-0.1-1.5
	c0-1.4,0.3-2.7,0.2-4.1c-0.1-2.1-0.4-4.3-0.7-6.4c2.1,0.1,5.3,0.3,6.8,1.4c0.5,2.6-0.2,5.5-0.2,8C95.3,69.1,95.4,70.2,95.3,71.3z"/>
</svg>
