<?xml version="1.0" encoding="utf-8"?>
<!-- Generator: Adobe Illustrator 22.0.1, SVG Export Plug-In . SVG Version: 6.00 Build 0)  -->
<svg version="1.1" xmlns="http://www.w3.org/2000/svg" xmlns:xlink="http://www.w3.org/1999/xlink" x="0px" y="0px"
	 viewBox="0 0 94.3 212.9" style="enable-background:new 0 0 94.3 212.9;" xml:space="preserve">
<style type="text/css">
	.Graphic_x0020_Style_x0020_4{fill:none;}
	.Graphic_x0020_Style_x0020_5{fill:#808285;}
	.st0{fill:url(#SVGID_1_);}
	.st1{opacity:0;fill:#FFFFFF;}
	.st2{opacity:4.761900e-02;fill:#F9F9F9;}
	.st3{opacity:9.523800e-02;fill:#F3F3F3;}
	.st4{opacity:0.1429;fill:#EDEDEE;}
	.st5{opacity:0.1905;fill:#E7E7E8;}
	.st6{opacity:0.2381;fill:#E1E1E2;}
	.st7{opacity:0.2857;fill:#DBDBDC;}
	.st8{opacity:0.3333;fill:#D5D5D6;}
	.st9{opacity:0.381;fill:#CFCFD1;}
	.st10{opacity:0.4286;fill:#C9C9CB;}
	.st11{opacity:0.4762;fill:#C3C3C5;}
	.st12{opacity:0.5238;fill:#BCBEBF;}
	.st13{opacity:0.5714;fill:#B6B8B9;}
	.st14{opacity:0.619;fill:#B0B2B3;}
	.st15{opacity:0.6667;fill:#AAACAE;}
	.st16{opacity:0.7143;fill:#A4A6A8;}
	.st17{opacity:0.7619;fill:#9EA0A2;}
	.st18{opacity:0.8095;fill:#989A9C;}
	.st19{opacity:0.8571;fill:#929496;}
	.st20{opacity:0.9048;fill:#8C8E91;}
	.st21{opacity:0.9524;fill:#86888B;}
	.st22{fill:#808285;}
	.st23{fill:url(#SVGID_2_);}
	.st24{fill:url(#SVGID_3_);}
	.st25{fill:url(#SVGID_4_);}
	.st26{fill:#0FA519;}
	.st27{fill:#A7A9AC;}
	.st28{fill:#FFFFFF;}
	.st29{fill:url(#SVGID_5_);}
	.st30{fill:url(#SVGID_6_);}
	.st31{fill:url(#SVGID_7_);}
	.st32{fill:url(#SVGID_8_);}
	.st33{fill:url(#SVGID_9_);}
	.st34{fill:url(#SVGID_10_);}
	.st35{fill:url(#SVGID_11_);}
	.st36{fill:url(#SVGID_12_);}
	.st37{fill:url(#SVGID_13_);}
	.st38{fill:url(#SVGID_14_);}
	.st39{fill:url(#SVGID_15_);}
	.st40{fill:url(#SVGID_16_);}
	.st41{fill:url(#SVGID_17_);}
	.st42{fill:url(#SVGID_18_);}
	.st43{fill:url(#SVGID_19_);}
	.st44{fill:url(#SVGID_20_);}
	.st45{fill:url(#SVGID_21_);}
	.st46{fill:url(#SVGID_22_);}
	.st47{opacity:4.761905e-02;fill:#F9F9F9;}
	.st48{opacity:9.523810e-02;fill:#F3F3F3;}
	.st49{fill:url(#SVGID_23_);}
	.st50{fill:url(#SVGID_24_);}
	.st51{fill:url(#SVGID_25_);}
	.st52{fill:#E22B13;}
	.st53{fill:url(#SVGID_26_);}
	.st54{fill:url(#SVGID_27_);}
	.st55{fill:url(#SVGID_28_);}
	.st56{fill:url(#SVGID_29_);}
	.st57{fill:url(#SVGID_30_);}
	.st58{fill:url(#SVGID_31_);}
	.st59{fill:url(#SVGID_32_);}
	.st60{fill:url(#SVGID_33_);}
	.st61{fill:url(#SVGID_34_);}
</style>
<g id="bg">
</g>
<g id="templates">
	<g id="_x31__2_">
		<g>
			<path class="st1" d="M52.5,210.3c-20.6,0-37.4-16.8-37.4-37.4c0-12.1,5.9-23.4,15.7-30.5l0-108.4c0-12,9.7-21.7,21.7-21.7
				c12,0,21.7,9.7,21.7,21.7v108.4c9.8,7,15.7,18.4,15.7,30.5C90,193.5,73.2,210.3,52.5,210.3z"/>
			<path class="st47" d="M30.4,33.6c0-12,9.7-21.7,21.7-21.7c12,0,21.7,9.7,21.7,21.7V142c0,0,0.1,0.1,0.1,0.1
				c9.8,7,15.6,18.3,15.6,30.4c0,20.6-16.8,37.4-37.4,37.4s-37.4-16.8-37.4-37.4c0-12.1,5.9-23.4,15.7-30.5L30.4,33.6z"/>
			<path class="st48" d="M30,33.2c0-12,9.7-21.7,21.7-21.7c12,0,21.7,9.7,21.7,21.7v108.4c0,0,0.1,0.1,0.1,0.1
				c9.8,7,15.6,18.3,15.6,30.4c0,20.6-16.8,37.4-37.4,37.4S14.3,192.7,14.3,172c0-12.1,5.9-23.4,15.7-30.5L30,33.2z"/>
			<path class="st4" d="M29.6,32.8c0-12,9.7-21.7,21.7-21.7c12,0,21.7,9.7,21.7,21.7v108.4c0,0,0.1,0.1,0.1,0.1
				c9.8,7,15.6,18.3,15.6,30.4c0,20.6-16.8,37.4-37.4,37.4s-37.4-16.8-37.4-37.4c0-12.1,5.9-23.4,15.7-30.5L29.6,32.8z"/>
			<path class="st5" d="M29.1,32.4c0-12,9.7-21.7,21.7-21.7c12,0,21.7,9.7,21.7,21.7v108.4c0,0,0.1,0.1,0.1,0.1
				c9.8,7,15.6,18.3,15.6,30.4c0,20.6-16.8,37.4-37.4,37.4s-37.4-16.8-37.4-37.4c0-12.1,5.8-23.4,15.7-30.4L29.1,32.4z"/>
			<path class="st6" d="M28.7,31.9c0-11.9,9.7-21.7,21.7-21.7c11.9,0,21.7,9.7,21.7,21.7v108.4c0,0,0.1,0.1,0.1,0.1
				c9.8,7,15.6,18.3,15.6,30.4c0,20.6-16.8,37.4-37.4,37.4S13,191.4,13,170.8c0-12.1,5.8-23.4,15.7-30.4L28.7,31.9z"/>
			<path class="st7" d="M28.3,31.5C28.3,19.6,38,9.8,50,9.8c11.9,0,21.7,9.7,21.7,21.7v108.4c0,0,0.1,0.1,0.1,0.1
				c9.8,7,15.6,18.3,15.6,30.4c0,20.6-16.8,37.4-37.4,37.4s-37.4-16.8-37.4-37.4c0-12.1,5.8-23.4,15.7-30.4L28.3,31.5z"/>
			<path class="st8" d="M27.9,31.1c0-11.9,9.7-21.6,21.6-21.6c11.9,0,21.6,9.7,21.6,21.6v108.4c0,0,0.1,0.1,0.1,0.1
				c9.8,7,15.6,18.3,15.6,30.4c0,20.6-16.8,37.3-37.3,37.3s-37.3-16.8-37.3-37.3c0-12.1,5.8-23.4,15.7-30.4L27.9,31.1z"/>
			<path class="st9" d="M27.5,30.6C27.5,18.7,37.2,9,49.1,9C61,9,70.7,18.7,70.7,30.6V139c0,0,0.1,0.1,0.1,0.1
				c9.8,7,15.6,18.3,15.6,30.3c0,20.6-16.7,37.3-37.3,37.3S11.8,190,11.8,169.5c0-12.1,5.8-23.4,15.7-30.4L27.5,30.6z"/>
			<path class="st10" d="M27.1,30.2c0-11.9,9.7-21.6,21.6-21.6c11.9,0,21.6,9.7,21.6,21.6v108.4c0,0,0.1,0.1,0.1,0.1
				C80.2,145.7,86,157,86,169c0,20.6-16.7,37.3-37.3,37.3S11.4,189.6,11.4,169c0-12.1,5.8-23.4,15.7-30.4L27.1,30.2z"/>
			<path class="st11" d="M26.6,29.8c0-11.9,9.7-21.6,21.6-21.6c11.9,0,21.6,9.7,21.6,21.6v108.4c0,0,0.1,0.1,0.1,0.1
				c9.8,7,15.6,18.3,15.6,30.3c0,20.6-16.7,37.3-37.3,37.3s-37.3-16.7-37.3-37.3c0-12.1,5.8-23.4,15.7-30.4L26.6,29.8z"/>
			<path class="st12" d="M26.2,29.3c0-11.9,9.7-21.6,21.6-21.6c11.9,0,21.6,9.7,21.6,21.6v108.4c0,0,0.1,0.1,0.1,0.1
				c9.8,7,15.6,18.3,15.6,30.3c0,20.6-16.7,37.3-37.3,37.3s-37.3-16.7-37.3-37.3c0-12,5.8-23.4,15.7-30.4L26.2,29.3z"/>
			<path class="st13" d="M25.8,28.9c0-11.9,9.7-21.6,21.6-21.6C59.3,7.3,69,17,69,28.9v108.4c0,0,0.1,0.1,0.1,0.1
				c9.8,7,15.6,18.3,15.6,30.3c0,20.6-16.7,37.3-37.3,37.3s-37.3-16.7-37.3-37.3c0-12,5.8-23.4,15.7-30.4L25.8,28.9z"/>
			<path class="st14" d="M25.4,28.5c0-11.9,9.7-21.6,21.6-21.6c11.9,0,21.6,9.7,21.6,21.6v108.4c0,0,0.1,0.1,0.1,0.1
				c9.8,7,15.6,18.3,15.6,30.3c0,20.6-16.7,37.3-37.3,37.3S9.7,187.9,9.7,167.3c0-12,5.8-23.4,15.7-30.4L25.4,28.5z"/>
			<path class="st15" d="M25,28.1c0-11.9,9.7-21.6,21.6-21.6c11.9,0,21.6,9.7,21.6,21.6v108.4c0,0,0.1,0.1,0.1,0.1
				c9.8,7,15.6,18.3,15.6,30.3c0,20.5-16.7,37.3-37.3,37.3S9.3,187.4,9.3,166.9c0-12,5.8-23.4,15.7-30.4L25,28.1z"/>
			<path class="st16" d="M24.5,27.6c0-11.9,9.7-21.6,21.6-21.6c11.9,0,21.6,9.7,21.6,21.6v108.4c0,0,0.1,0.1,0.1,0.1
				c9.8,7,15.6,18.3,15.6,30.3c0,20.5-16.7,37.2-37.2,37.2S8.8,187,8.8,166.5c0-12,5.8-23.3,15.7-30.4L24.5,27.6z"/>
			<path class="st17" d="M24.1,27.2c0-11.9,9.7-21.5,21.5-21.5c11.9,0,21.5,9.7,21.5,21.5v108.4c0,0,0.1,0.1,0.1,0.1
				c9.8,7,15.6,18.3,15.6,30.3c0,20.5-16.7,37.2-37.2,37.2S8.4,186.6,8.4,166c0-12,5.8-23.3,15.7-30.4L24.1,27.2z"/>
			<path class="st18" d="M23.7,26.8c0-11.9,9.7-21.5,21.5-21.5c11.9,0,21.5,9.7,21.5,21.5v108.5c0,0,0.1,0.1,0.1,0.1
				c9.8,7,15.6,18.3,15.6,30.3c0,20.5-16.7,37.2-37.2,37.2S8,186.1,8,165.6c0-12,5.8-23.3,15.7-30.4L23.7,26.8z"/>
			<path class="st19" d="M23.3,26.3c0-11.9,9.7-21.5,21.5-21.5c11.9,0,21.5,9.7,21.5,21.5v108.5c0,0,0.1,0.1,0.1,0.1
				c9.8,7,15.6,18.3,15.6,30.3c0,20.5-16.7,37.2-37.2,37.2S7.6,185.7,7.6,165.2c0-12,5.8-23.3,15.7-30.4L23.3,26.3z"/>
			<path class="st20" d="M22.9,25.9c0-11.9,9.6-21.5,21.5-21.5c11.9,0,21.5,9.6,21.5,21.5v108.5c0,0,0.1,0.1,0.1,0.1
				c9.8,7,15.6,18.3,15.6,30.3c0,20.5-16.7,37.2-37.2,37.2S7.2,185.2,7.2,164.7c0-12,5.8-23.3,15.7-30.4L22.9,25.9z"/>
			<path class="st21" d="M22.4,25.5C22.4,13.6,32.1,4,43.9,4c11.9,0,21.5,9.6,21.5,21.5V134c0,0,0.1,0.1,0.1,0.1
				c9.8,7,15.6,18.3,15.6,30.3c0,20.5-16.7,37.2-37.2,37.2S6.8,184.8,6.8,164.3c0-12,5.8-23.3,15.7-30.4L22.4,25.5z"/>
			<path class="Graphic_x0020_Style_x0020_5" d="M43.5,201.1c-20.5,0-37.2-16.7-37.2-37.2c0-12,5.8-23.3,15.6-30.3l0.1-0.1L22,25
				c0-11.8,9.6-21.5,21.5-21.5C55.4,3.6,65,13.2,65,25v108.5l0.1,0.1c9.8,7,15.6,18.3,15.6,30.3C80.7,184.4,64,201.1,43.5,201.1z"/>
		</g>
		<linearGradient id="SVGID_1_" gradientUnits="userSpaceOnUse" x1="6.0953" y1="102.3072" x2="80.9392" y2="102.3072">
			<stop  offset="0" style="stop-color:#FFFFFF"/>
			<stop  offset="1" style="stop-color:#D1D3D4"/>
		</linearGradient>
		<path class="st0" d="M43.5,201.3c-20.6,0-37.4-16.8-37.4-37.4c0-12.1,5.9-23.4,15.7-30.5l0-108.4c0-12,9.7-21.7,21.7-21.7
			c12,0,21.7,9.7,21.7,21.7v108.4c9.8,7,15.7,18.4,15.7,30.5C80.9,184.5,64.2,201.3,43.5,201.3z"/>
		<linearGradient id="SVGID_2_" gradientUnits="userSpaceOnUse" x1="7.3024" y1="102.3072" x2="79.732" y2="102.3072">
			<stop  offset="0" style="stop-color:#D1D3D4"/>
			<stop  offset="1" style="stop-color:#FFFFFF"/>
		</linearGradient>
		<path class="st23" d="M43.5,200.1c-20,0-36.2-16.2-36.2-36.2c0-11.9,5.9-23.1,15.7-29.8l0-109c0-11.3,9.2-20.5,20.5-20.5
			S64,13.7,64,25v109c9.8,6.8,15.7,17.9,15.7,29.8C79.7,183.8,63.5,200.1,43.5,200.1z"/>
		<g>
			<path class="st1" d="M49.5,197c-15,0-27.2-12.2-27.2-27.2c0-8.9,4.4-17.3,11.8-22.4l3.9-2.7v-5.1c0-6.3,5.1-11.5,11.5-11.5
				S61,133.4,61,139.7v5.1l3.9,2.7c7.4,5.1,11.8,13.4,11.8,22.4C76.7,184.9,64.5,197,49.5,197z"/>
			<path class="st47" d="M49.2,196.7c-15,0-27.1-12.2-27.1-27.1c0-8.9,4.4-17.3,11.8-22.4l3.9-2.7v-5.1c0-6.3,5.1-11.5,11.5-11.5
				c6.3,0,11.5,5.1,11.5,11.5v5.1l3.9,2.7c7.4,5.1,11.8,13.4,11.8,22.4C76.4,184.6,64.2,196.7,49.2,196.7z"/>
			<path class="st48" d="M49,196.4c-15,0-27.1-12.2-27.1-27.1c0-8.9,4.4-17.3,11.8-22.4l3.9-2.7v-5.1c0-6.3,5.1-11.4,11.4-11.4
				c6.3,0,11.4,5.1,11.4,11.4v5.1l3.9,2.7c7.4,5.1,11.8,13.4,11.8,22.4C76.1,184.3,63.9,196.4,49,196.4z"/>
			<path class="st4" d="M48.7,196.2c-15,0-27.1-12.2-27.1-27.1c0-8.9,4.4-17.3,11.8-22.4l3.9-2.7v-5.1c0-6.3,5.1-11.4,11.4-11.4
				c6.3,0,11.4,5.1,11.4,11.4v5.1l3.9,2.7c7.4,5.1,11.8,13.4,11.8,22.4C75.8,184,63.6,196.2,48.7,196.2z"/>
			<path class="st5" d="M48.4,195.9c-15,0-27.1-12.2-27.1-27.1c0-8.9,4.4-17.3,11.8-22.3l3.9-2.7v-5.1c0-6.3,5.1-11.4,11.4-11.4
				c6.3,0,11.4,5.1,11.4,11.4v5.1l3.9,2.7c7.4,5.1,11.8,13.4,11.8,22.3C75.5,183.7,63.3,195.9,48.4,195.9z"/>
			<path class="st6" d="M48.1,195.6c-14.9,0-27.1-12.2-27.1-27.1c0-8.9,4.4-17.3,11.7-22.3l3.9-2.7v-5.1c0-6.3,5.1-11.4,11.4-11.4
				c6.3,0,11.4,5.1,11.4,11.4v5.1l3.9,2.7c7.4,5.1,11.7,13.4,11.7,22.3C75.2,183.4,63,195.6,48.1,195.6z"/>
			<path class="st7" d="M47.8,195.3c-14.9,0-27.1-12.2-27.1-27.1c0-8.9,4.4-17.3,11.7-22.3l4-2.7V138c0-6.3,5.1-11.4,11.4-11.4
				c6.3,0,11.4,5.1,11.4,11.4v5.1l4,2.7c7.4,5.1,11.7,13.4,11.7,22.3C74.9,183.1,62.7,195.3,47.8,195.3z"/>
			<path class="st8" d="M47.5,195c-14.9,0-27.1-12.1-27.1-27.1c0-8.9,4.4-17.3,11.7-22.3l4-2.7v-5.1c0-6.3,5.1-11.4,11.4-11.4
				c6.3,0,11.4,5.1,11.4,11.4v5.1l4,2.7c7.3,5.1,11.7,13.4,11.7,22.3C74.6,182.8,62.5,195,47.5,195z"/>
			<path class="st9" d="M47.2,194.7c-14.9,0-27.1-12.1-27.1-27.1c0-8.9,4.4-17.3,11.7-22.3l4-2.7v-5.1c0-6.3,5.1-11.4,11.4-11.4
				c6.3,0,11.4,5.1,11.4,11.4v5.1l4,2.7c7.3,5.1,11.7,13.4,11.7,22.3C74.3,182.5,62.2,194.7,47.2,194.7z"/>
			<path class="st10" d="M47,194.4c-14.9,0-27.1-12.1-27.1-27.1c0-8.9,4.4-17.2,11.7-22.3l4-2.7v-5.2c0-6.3,5.1-11.4,11.4-11.4
				c6.3,0,11.4,5.1,11.4,11.4v5.2l4,2.7c7.3,5.1,11.7,13.4,11.7,22.3C74,182.2,61.9,194.4,47,194.4z"/>
			<path class="st11" d="M46.7,194.1c-14.9,0-27-12.1-27-27c0-8.9,4.4-17.2,11.7-22.3l4-2.7v-5.2c0-6.3,5.1-11.4,11.4-11.4
				c6.3,0,11.4,5.1,11.4,11.4v5.2l4,2.7c7.3,5.1,11.7,13.4,11.7,22.3C73.7,181.9,61.6,194.1,46.7,194.1z"/>
			<path class="st12" d="M46.4,193.8c-14.9,0-27-12.1-27-27c0-8.9,4.4-17.2,11.7-22.3l4-2.7v-5.2c0-6.3,5.1-11.3,11.3-11.3
				c6.3,0,11.3,5.1,11.3,11.3v5.2l4,2.7c7.3,5,11.7,13.4,11.7,22.3C73.4,181.6,61.3,193.8,46.4,193.8z"/>
			<path class="st13" d="M46.1,193.5c-14.9,0-27-12.1-27-27c0-8.9,4.4-17.2,11.7-22.3l4-2.7v-5.2c0-6.2,5.1-11.3,11.3-11.3
				c6.2,0,11.3,5.1,11.3,11.3v5.2l4,2.7c7.3,5,11.7,13.4,11.7,22.3C73.1,181.3,61,193.5,46.1,193.5z"/>
			<path class="st14" d="M45.8,193.2c-14.9,0-27-12.1-27-27c0-8.9,4.4-17.2,11.7-22.3l4-2.7V136c0-6.2,5.1-11.3,11.3-11.3
				c6.2,0,11.3,5.1,11.3,11.3v5.2l4,2.7c7.3,5,11.7,13.4,11.7,22.3C72.8,181.1,60.7,193.2,45.8,193.2z"/>
			<path class="st15" d="M45.5,192.9c-14.9,0-27-12.1-27-27c0-8.9,4.4-17.2,11.7-22.2l4-2.7v-5.2c0-6.2,5.1-11.3,11.3-11.3
				c6.2,0,11.3,5.1,11.3,11.3v5.2l4,2.7c7.3,5,11.7,13.4,11.7,22.2C72.5,180.8,60.4,192.9,45.5,192.9z"/>
			<path class="st16" d="M45.2,192.6c-14.9,0-27-12.1-27-27c0-8.9,4.4-17.2,11.7-22.2l4-2.7v-5.2c0-6.2,5.1-11.3,11.3-11.3
				c6.2,0,11.3,5.1,11.3,11.3v5.2l4,2.7c7.3,5,11.7,13.4,11.7,22.2C72.2,180.5,60.1,192.6,45.2,192.6z"/>
			<path class="st17" d="M44.9,192.3c-14.9,0-27-12.1-27-27c0-8.9,4.4-17.2,11.7-22.2l4-2.8v-5.2c0-6.2,5.1-11.3,11.3-11.3
				c6.2,0,11.3,5.1,11.3,11.3v5.2l4,2.8c7.3,5,11.7,13.3,11.7,22.2C71.9,180.2,59.8,192.3,44.9,192.3z"/>
			<path class="st18" d="M44.7,192c-14.9,0-27-12.1-27-27c0-8.9,4.4-17.2,11.7-22.2l4-2.8v-5.2c0-6.2,5.1-11.3,11.3-11.3
				c6.2,0,11.3,5.1,11.3,11.3v5.2l4,2.8c7.3,5,11.7,13.3,11.7,22.2C71.6,179.9,59.5,192,44.7,192z"/>
			<path class="st19" d="M44.4,191.7c-14.9,0-27-12.1-27-27c0-8.9,4.4-17.2,11.7-22.2l4-2.8v-5.2c0-6.2,5.1-11.3,11.3-11.3
				c6.2,0,11.3,5.1,11.3,11.3v5.2l4,2.8c7.3,5,11.7,13.3,11.7,22.2C71.3,179.6,59.2,191.7,44.4,191.7z"/>
			<path class="st20" d="M44.1,191.4c-14.9,0-26.9-12.1-26.9-26.9c0-8.9,4.4-17.2,11.7-22.2l4-2.8v-5.2c0-6.2,5-11.2,11.2-11.2
				c6.2,0,11.2,5,11.2,11.2v5.2l4,2.8c7.3,5,11.7,13.3,11.7,22.2C71,179.3,58.9,191.4,44.1,191.4z"/>
			<path class="st21" d="M43.8,191.1c-14.8,0-26.9-12.1-26.9-26.9c0-8.9,4.4-17.2,11.7-22.2l4-2.8V134c0-6.2,5-11.2,11.2-11.2
				c6.2,0,11.2,5,11.2,11.2v5.2l4,2.8c7.3,5,11.7,13.3,11.7,22.2C70.7,179,58.7,191.1,43.8,191.1z"/>
			<path class="Graphic_x0020_Style_x0020_5" d="M43.5,190.8c-14.8,0-26.9-12.1-26.9-26.9c0-8.9,4.4-17.2,11.7-22.2l4-2.8v-5.2
				c0-6.2,5-11.2,11.2-11.2c6.2,0,11.2,5,11.2,11.2v5.2l4,2.8c7.3,5,11.7,13.3,11.7,22.2C70.4,178.7,58.4,190.8,43.5,190.8z"/>
		</g>
		<linearGradient id="SVGID_3_" gradientUnits="userSpaceOnUse" x1="16.3561" y1="156.6294" x2="70.6783" y2="156.6294">
			<stop  offset="0" style="stop-color:#AAB9BD"/>
			<stop  offset="8.997262e-03" style="stop-color:#ABBABE"/>
			<stop  offset="0.3131" style="stop-color:#C3CED0"/>
			<stop  offset="0.5" style="stop-color:#CCD5D7"/>
			<stop  offset="1" style="stop-color:#EEF1F2"/>
		</linearGradient>
		<path class="st24" d="M43.5,191c-15,0-27.2-12.2-27.2-27.2c0-8.9,4.4-17.3,11.8-22.4l3.9-2.7v-5.1c0-6.3,5.1-11.5,11.5-11.5
			c6.3,0,11.5,5.1,11.5,11.5v5.1l3.9,2.7c7.4,5.1,11.8,13.4,11.8,22.4C70.7,178.8,58.5,191,43.5,191z"/>
		<path class="st52" d="M43.5,189.8c-14.3,0-26-11.6-26-26c0-8.5,4.2-16.5,11.2-21.4l4.4-3.1v-5.7c0-5.7,4.6-10.3,10.3-10.3
			s10.3,4.6,10.3,10.3v5.7l4.4,3.1c7,4.8,11.2,12.8,11.2,21.4C69.5,178.2,57.8,189.8,43.5,189.8z"/>
		<g>
			<path class="st22" d="M63.3,122.8h-3.6c-0.3,0-0.6-0.3-0.6-0.6s0.3-0.6,0.6-0.6h3.6c0.3,0,0.6,0.3,0.6,0.6S63.7,122.8,63.3,122.8
				z"/>
			<path class="st22" d="M63.3,110.8h-3.6c-0.3,0-0.6-0.3-0.6-0.6c0-0.3,0.3-0.6,0.6-0.6h3.6c0.3,0,0.6,0.3,0.6,0.6
				C63.9,110.5,63.7,110.8,63.3,110.8z"/>
			<path class="st22" d="M63.3,98.7h-3.6c-0.3,0-0.6-0.3-0.6-0.6s0.3-0.6,0.6-0.6h3.6c0.3,0,0.6,0.3,0.6,0.6S63.7,98.7,63.3,98.7z"
				/>
			<path class="st22" d="M63.3,86.6h-3.6c-0.3,0-0.6-0.3-0.6-0.6c0-0.3,0.3-0.6,0.6-0.6h3.6c0.3,0,0.6,0.3,0.6,0.6
				C63.9,86.3,63.7,86.6,63.3,86.6z"/>
			<path class="st22" d="M63.3,74.5h-3.6c-0.3,0-0.6-0.3-0.6-0.6c0-0.3,0.3-0.6,0.6-0.6h3.6c0.3,0,0.6,0.3,0.6,0.6
				C63.9,74.3,63.7,74.5,63.3,74.5z"/>
			<path class="st22" d="M63.3,62.5h-3.6c-0.3,0-0.6-0.3-0.6-0.6c0-0.3,0.3-0.6,0.6-0.6h3.6c0.3,0,0.6,0.3,0.6,0.6
				C63.9,62.2,63.7,62.5,63.3,62.5z"/>
			<path class="st22" d="M63.3,50.4h-3.6c-0.3,0-0.6-0.3-0.6-0.6s0.3-0.6,0.6-0.6h3.6c0.3,0,0.6,0.3,0.6,0.6S63.7,50.4,63.3,50.4z"
				/>
			<path class="st22" d="M63.3,38.3h-3.6c-0.3,0-0.6-0.3-0.6-0.6c0-0.3,0.3-0.6,0.6-0.6h3.6c0.3,0,0.6,0.3,0.6,0.6
				C63.9,38.1,63.7,38.3,63.3,38.3z"/>
			<path class="st22" d="M63.3,26.3h-3.6c-0.3,0-0.6-0.3-0.6-0.6c0-0.3,0.3-0.6,0.6-0.6h3.6c0.3,0,0.6,0.3,0.6,0.6
				C63.9,26,63.7,26.3,63.3,26.3z"/>
		</g>
		<g id="_x31_0_x25__2_">
			<g>
				<path class="st27" d="M29.4,157.2L29.4,157.2l-3.3,1.6l-0.6-2.5l4.3-2.1h2.8v17.7h-3.2V157.2z"/>
				<path class="st27" d="M51.2,162.9c0,5.7-2.2,9.2-6.4,9.2c-4.1,0-6.2-3.7-6.3-9.1c0-5.5,2.3-9.2,6.5-9.2
					C49.2,153.9,51.2,157.7,51.2,162.9z M41.9,163.1c0,4.3,1.2,6.5,3,6.5c2,0,3-2.4,3-6.6c0-4.1-1-6.5-3-6.5
					C43.1,156.4,41.9,158.6,41.9,163.1z"/>
				<path class="st27" d="M58.2,161.8c0,3-1.4,4.4-2.8,4.4c-2,0-2.8-2.2-2.8-4.3c0-2.3,1-4.4,2.9-4.4
					C57.5,157.5,58.2,159.9,58.2,161.8z M54.4,161.9c0,1.8,0.3,2.8,0.9,2.8s0.9-1,0.9-2.8c0-1.7-0.2-2.8-0.9-2.8
					C54.8,159,54.4,160.1,54.4,161.9z M54.7,172l7.6-14.5h1.5L56.2,172H54.7z M66,167.6c0,3-1.4,4.4-2.8,4.4c-2,0-2.8-2.2-2.8-4.3
					c0-2.3,1-4.4,2.9-4.4C65.4,163.3,66,165.7,66,167.6z M62.3,167.6c0,1.8,0.3,2.8,0.9,2.8c0.7,0,0.9-1,0.9-2.8
					c0-1.7-0.2-2.8-0.9-2.8C62.6,164.8,62.3,165.8,62.3,167.6z"/>
			</g>
			<path class="st28" d="M28.2,156L28.2,156l-3.3,1.6l-0.6-2.5l4.3-2.1h2.8v17.7h-3.2V156z"/>
			<path class="st28" d="M50,161.7c0,5.7-2.2,9.2-6.4,9.2c-4.1,0-6.2-3.7-6.3-9.1c0-5.5,2.3-9.2,6.5-9.2C48,152.7,50,156.5,50,161.7
				z M40.7,161.9c0,4.3,1.2,6.5,3,6.5c2,0,3-2.4,3-6.6c0-4.1-1-6.5-3-6.5C41.9,155.2,40.6,157.4,40.7,161.9z"/>
			<path class="st28" d="M57,160.6c0,3-1.4,4.4-2.8,4.4c-2,0-2.8-2.2-2.8-4.3c0-2.3,1-4.4,2.9-4.4C56.3,156.3,57,158.7,57,160.6z
				 M53.2,160.7c0,1.8,0.3,2.8,0.9,2.8c0.7,0,0.9-1,0.9-2.8c0-1.7-0.2-2.8-0.9-2.8C53.5,157.8,53.2,158.9,53.2,160.7z M53.5,170.8
				l7.6-14.5h1.5L55,170.8H53.5z M64.8,166.4c0,3-1.4,4.4-2.8,4.4c-2,0-2.8-2.2-2.8-4.3c0-2.3,1-4.4,2.9-4.4
				C64.1,162.1,64.8,164.4,64.8,166.4z M61.1,166.4c0,1.8,0.3,2.8,0.9,2.8c0.7,0,0.9-1,0.9-2.8c0-1.7-0.2-2.8-0.9-2.8
				C61.4,163.6,61.1,164.6,61.1,166.4z"/>
		</g>
	</g>
</g>
</svg>
