<?xml version="1.0" encoding="utf-8"?>
<!-- Generator: Adobe Illustrator 22.0.1, SVG Export Plug-In . SVG Version: 6.00 Build 0)  -->
<svg version="1.1" xmlns="http://www.w3.org/2000/svg" xmlns:xlink="http://www.w3.org/1999/xlink" x="0px" y="0px"
	 viewBox="0 0 94.3 212.9" style="enable-background:new 0 0 94.3 212.9;" xml:space="preserve">
<style type="text/css">
	.Graphic_x0020_Style_x0020_8{fill:none;}
	.Graphic_x0020_Style_x0020_9{fill:#808285;}
	.st0{fill:url(#SVGID_1_);}
	.st1{opacity:0;fill:#FFFFFF;}
	.st2{opacity:4.761900e-02;fill:#F9F9F9;}
	.st3{opacity:9.523800e-02;fill:#F3F3F3;}
	.st4{opacity:0.1429;fill:#EDEDEE;}
	.st5{opacity:0.1905;fill:#E7E7E8;}
	.st6{opacity:0.2381;fill:#E1E1E2;}
	.st7{opacity:0.2857;fill:#DBDBDC;}
	.st8{opacity:0.3333;fill:#D5D5D6;}
	.st9{opacity:0.381;fill:#CFCFD1;}
	.st10{opacity:0.4286;fill:#C9C9CB;}
	.st11{opacity:0.4762;fill:#C3C3C5;}
	.st12{opacity:0.5238;fill:#BCBEBF;}
	.st13{opacity:0.5714;fill:#B6B8B9;}
	.st14{opacity:0.619;fill:#B0B2B3;}
	.st15{opacity:0.6667;fill:#AAACAE;}
	.st16{opacity:0.7143;fill:#A4A6A8;}
	.st17{opacity:0.7619;fill:#9EA0A2;}
	.st18{opacity:0.8095;fill:#989A9C;}
	.st19{opacity:0.8571;fill:#929496;}
	.st20{opacity:0.9048;fill:#8C8E91;}
	.st21{opacity:0.9524;fill:#86888B;}
	.st22{fill:#808285;}
	.st23{fill:url(#SVGID_2_);}
	.st24{fill:url(#SVGID_3_);}
	.st25{fill:url(#SVGID_4_);}
	.st26{fill:#0FA519;}
	.st27{fill:#A7A9AC;}
	.st28{fill:#FFFFFF;}
	.st29{fill:url(#SVGID_5_);}
	.st30{fill:url(#SVGID_6_);}
	.st31{fill:url(#SVGID_7_);}
	.st32{fill:url(#SVGID_8_);}
	.st33{fill:url(#SVGID_9_);}
	.st34{fill:url(#SVGID_10_);}
	.st35{fill:url(#SVGID_11_);}
	.st36{fill:url(#SVGID_12_);}
	.st37{fill:url(#SVGID_13_);}
	.st38{fill:url(#SVGID_14_);}
	.st39{fill:url(#SVGID_15_);}
	.st40{fill:url(#SVGID_16_);}
	.st41{fill:url(#SVGID_17_);}
	.st42{fill:url(#SVGID_18_);}
	.st43{fill:url(#SVGID_19_);}
	.st44{fill:url(#SVGID_20_);}
	.st45{fill:url(#SVGID_21_);}
	.st46{fill:url(#SVGID_22_);}
	.st47{opacity:4.761905e-02;fill:#F9F9F9;}
	.st48{opacity:9.523810e-02;fill:#F3F3F3;}
	.st49{fill:url(#SVGID_23_);}
	.st50{fill:url(#SVGID_24_);}
	.st51{fill:url(#SVGID_25_);}
	.st52{fill:#E22B13;}
	.st53{fill:url(#SVGID_26_);}
	.st54{fill:url(#SVGID_27_);}
	.st55{fill:url(#SVGID_28_);}
	.st56{fill:url(#SVGID_29_);}
	.st57{fill:url(#SVGID_30_);}
	.st58{fill:url(#SVGID_31_);}
	.st59{fill:url(#SVGID_32_);}
	.st60{fill:url(#SVGID_33_);}
	.st61{fill:url(#SVGID_34_);}
</style>
<g id="bg">
</g>
<g id="templates">
	<g id="_x33_">
		<g>
			<path class="st1" d="M52.6,211.6c-20.6,0-37.3-16.8-37.3-37.3c0-12.1,5.8-23.4,15.7-30.4l0-108.1c0-12,9.7-21.7,21.7-21.7
				s21.7,9.7,21.7,21.7v108.1c9.8,7,15.7,18.3,15.7,30.4C90,194.8,73.2,211.6,52.6,211.6z"/>
			<path class="st47" d="M30.5,35.3c0-12,9.7-21.7,21.7-21.7s21.7,9.7,21.7,21.7v108.1c0,0,0.1,0.1,0.1,0.1
				c9.8,7,15.6,18.3,15.6,30.3c0,20.6-16.7,37.3-37.3,37.3c-20.6,0-37.3-16.7-37.3-37.3c0-12.1,5.8-23.4,15.7-30.4L30.5,35.3z"/>
			<path class="st48" d="M30.1,34.8c0-11.9,9.7-21.7,21.7-21.7s21.7,9.7,21.7,21.7V143c0,0,0.1,0.1,0.1,0.1
				c9.8,7,15.6,18.3,15.6,30.3c0,20.6-16.7,37.3-37.3,37.3c-20.6,0-37.3-16.7-37.3-37.3c0-12.1,5.8-23.4,15.7-30.4L30.1,34.8z"/>
			<path class="st4" d="M29.7,34.4c0-11.9,9.7-21.6,21.6-21.6S73,22.5,73,34.4v108.1c0,0,0.1,0.1,0.1,0.1c9.8,7,15.6,18.3,15.6,30.3
				c0,20.6-16.7,37.3-37.3,37.3c-20.6,0-37.3-16.7-37.3-37.3c0-12.1,5.8-23.4,15.7-30.4L29.7,34.4z"/>
			<path class="st5" d="M29.3,34c0-11.9,9.7-21.6,21.6-21.6c11.9,0,21.6,9.7,21.6,21.6v108.2c0,0,0.1,0.1,0.1,0.1
				c9.8,7,15.6,18.3,15.6,30.3c0,20.6-16.7,37.3-37.3,37.3c-20.6,0-37.3-16.7-37.3-37.3c0-12.1,5.8-23.4,15.7-30.4L29.3,34z"/>
			<path class="st6" d="M28.9,33.5c0-11.9,9.7-21.6,21.6-21.6s21.6,9.7,21.6,21.6v108.2c0,0,0.1,0.1,0.1,0.1
				c9.8,7,15.6,18.3,15.6,30.3c0,20.6-16.7,37.3-37.3,37.3c-20.6,0-37.3-16.7-37.3-37.3c0-12.1,5.8-23.4,15.7-30.4L28.9,33.5z"/>
			<path class="st7" d="M28.4,33.1c0-11.9,9.7-21.6,21.6-21.6s21.6,9.7,21.6,21.6v108.2c0,0,0.1,0.1,0.1,0.1
				c9.8,7,15.6,18.3,15.6,30.3c0,20.6-16.7,37.3-37.3,37.3c-20.6,0-37.3-16.7-37.3-37.3c0-12,5.8-23.4,15.7-30.4L28.4,33.1z"/>
			<path class="st8" d="M28,32.7c0-11.9,9.7-21.6,21.6-21.6s21.6,9.7,21.6,21.6v108.2c0,0,0.1,0.1,0.1,0.1
				c9.8,7,15.6,18.3,15.6,30.3c0,20.5-16.7,37.3-37.3,37.3c-20.5,0-37.3-16.7-37.3-37.3c0-12,5.8-23.4,15.7-30.4L28,32.7z"/>
			<path class="st9" d="M27.6,32.3c0-11.9,9.7-21.6,21.6-21.6s21.6,9.7,21.6,21.6v108.2c0,0,0.1,0.1,0.1,0.1
				c9.8,7,15.6,18.3,15.6,30.3c0,20.5-16.7,37.3-37.3,37.3c-20.5,0-37.3-16.7-37.3-37.3c0-12,5.8-23.3,15.7-30.4L27.6,32.3z"/>
			<path class="st10" d="M27.2,31.8c0-11.9,9.7-21.6,21.6-21.6s21.6,9.7,21.6,21.6V140c0,0,0.1,0.1,0.1,0.1
				c9.8,7,15.6,18.3,15.6,30.3c0,20.5-16.7,37.2-37.2,37.2c-20.5,0-37.2-16.7-37.2-37.2c0-12,5.8-23.3,15.7-30.4L27.2,31.8z"/>
			<path class="st11" d="M26.8,31.4c0-11.9,9.7-21.6,21.6-21.6s21.6,9.7,21.6,21.6v108.2c0,0,0.1,0.1,0.1,0.1
				c9.8,7,15.6,18.3,15.6,30.3c0,20.5-16.7,37.2-37.2,37.2c-20.5,0-37.2-16.7-37.2-37.2c0-12,5.8-23.3,15.7-30.3L26.8,31.4z"/>
			<path class="st12" d="M26.3,31c0-11.9,9.7-21.6,21.6-21.6S69.5,19.1,69.5,31v108.2c0,0,0.1,0.1,0.1,0.1
				c9.7,7,15.6,18.3,15.6,30.3c0,20.5-16.7,37.2-37.2,37.2c-20.5,0-37.2-16.7-37.2-37.2c0-12,5.8-23.3,15.7-30.3L26.3,31z"/>
			<path class="st13" d="M25.9,30.5C25.9,18.7,35.6,9,47.5,9S69,18.7,69,30.5v108.2c0,0,0.1,0.1,0.1,0.1c9.7,7,15.6,18.3,15.6,30.3
				c0,20.5-16.7,37.2-37.2,37.2c-20.5,0-37.2-16.7-37.2-37.2c0-12,5.8-23.3,15.7-30.3L25.9,30.5z"/>
			<path class="st14" d="M25.5,30.1c0-11.9,9.7-21.5,21.5-21.5s21.5,9.7,21.5,21.5v108.2c0,0,0.1,0.1,0.1,0.1
				c9.7,7,15.6,18.3,15.6,30.3c0,20.5-16.7,37.2-37.2,37.2c-20.5,0-37.2-16.7-37.2-37.2c0-12,5.8-23.3,15.7-30.3L25.5,30.1z"/>
			<path class="st15" d="M25.1,29.7c0-11.9,9.7-21.5,21.5-21.5s21.5,9.7,21.5,21.5v108.2c0,0,0.1,0.1,0.1,0.1
				c9.7,7,15.6,18.3,15.6,30.3c0,20.5-16.7,37.2-37.2,37.2c-20.5,0-37.2-16.7-37.2-37.2c0-12,5.8-23.3,15.7-30.3L25.1,29.7z"/>
			<path class="st16" d="M24.7,29.2c0-11.9,9.7-21.5,21.5-21.5s21.5,9.7,21.5,21.5v108.2c0,0,0.1,0.1,0.1,0.1
				c9.7,7,15.6,18.3,15.6,30.2c0,20.5-16.7,37.2-37.2,37.2C25.7,205,9,188.3,9,167.8c0-12,5.8-23.3,15.7-30.3L24.7,29.2z"/>
			<path class="st17" d="M24.3,28.8c0-11.9,9.6-21.5,21.5-21.5S67.3,17,67.3,28.8V137c0,0,0.1,0.1,0.1,0.1
				c9.7,7,15.6,18.3,15.6,30.2c0,20.5-16.7,37.2-37.2,37.2c-20.5,0-37.2-16.7-37.2-37.2c0-12,5.8-23.3,15.7-30.3L24.3,28.8z"/>
			<path class="st18" d="M23.8,28.4c0-11.8,9.6-21.5,21.5-21.5s21.5,9.6,21.5,21.5v108.2c0,0,0.1,0.1,0.1,0.1
				c9.7,7,15.6,18.3,15.6,30.2c0,20.5-16.7,37.1-37.1,37.1c-20.5,0-37.1-16.7-37.1-37.1c0-12,5.8-23.3,15.7-30.3L23.8,28.4z"/>
			<path class="st19" d="M23.4,28c0-11.8,9.6-21.5,21.5-21.5S66.4,16.1,66.4,28v108.2c0,0,0.1,0.1,0.1,0.1
				c9.7,7,15.6,18.3,15.6,30.2c0,20.5-16.7,37.1-37.1,37.1c-20.5,0-37.1-16.7-37.1-37.1c0-12,5.8-23.3,15.7-30.3L23.4,28z"/>
			<path class="st20" d="M23,27.5c0-11.8,9.6-21.5,21.5-21.5s21.5,9.6,21.5,21.5v108.2c0,0,0.1,0.1,0.1,0.1
				c9.7,7,15.6,18.2,15.6,30.2c0,20.5-16.7,37.1-37.1,37.1c-20.5,0-37.1-16.7-37.1-37.1c0-12,5.8-23.3,15.7-30.3L23,27.5z"/>
			<path class="st21" d="M22.6,27.1c0-11.8,9.6-21.5,21.5-21.5s21.5,9.6,21.5,21.5v108.2c0,0,0.1,0.1,0.1,0.1
				c9.7,7,15.6,18.2,15.6,30.2c0,20.5-16.7,37.1-37.1,37.1c-20.5,0-37.1-16.6-37.1-37.1c0-12,5.8-23.3,15.7-30.3L22.6,27.1z"/>
			<path class="Graphic_x0020_Style_x0020_9" d="M43.6,202.3c-20.5,0-37.1-16.6-37.1-37.1c0-12,5.8-23.3,15.6-30.2l0.1-0.1l0-108.3
				c0-11.8,9.6-21.4,21.4-21.4s21.4,9.6,21.4,21.4v108.3l0.1,0.1c9.7,7,15.6,18.2,15.6,30.2C80.7,185.7,64.1,202.3,43.6,202.3z"/>
		</g>
		<linearGradient id="SVGID_1_" gradientUnits="userSpaceOnUse" x1="6.2681" y1="103.7721" x2="80.9578" y2="103.7721">
			<stop  offset="0" style="stop-color:#FFFFFF"/>
			<stop  offset="1" style="stop-color:#D1D3D4"/>
		</linearGradient>
		<path class="st0" d="M43.6,202.6c-20.6,0-37.3-16.8-37.3-37.3c0-12.1,5.8-23.4,15.7-30.4l0-108.1c0-12,9.7-21.7,21.7-21.7
			s21.7,9.7,21.7,21.7v108.1c9.8,7,15.7,18.3,15.7,30.4C81,185.8,64.2,202.6,43.6,202.6z"/>
		<linearGradient id="SVGID_2_" gradientUnits="userSpaceOnUse" x1="7.4728" y1="103.7721" x2="79.7531" y2="103.7721">
			<stop  offset="0" style="stop-color:#D1D3D4"/>
			<stop  offset="1" style="stop-color:#FFFFFF"/>
		</linearGradient>
		<path class="st23" d="M43.6,201.4c-19.9,0-36.1-16.2-36.1-36.1c0-11.9,5.9-23,15.7-29.8l0-108.8c0-11.3,9.2-20.5,20.5-20.5
			c11.3,0,20.5,9.2,20.5,20.5v108.8c9.8,6.7,15.7,17.9,15.7,29.8C79.8,185.1,63.5,201.4,43.6,201.4z"/>
		<g>
			<path class="st1" d="M49.6,198.3c-14.9,0-27.1-12.2-27.1-27.1c0-8.9,4.4-17.3,11.7-22.3l3.9-2.7V117c0-6.3,5.1-11.4,11.4-11.4
				c6.3,0,11.4,5.1,11.4,11.4v29.2l3.9,2.7c7.4,5.1,11.7,13.4,11.7,22.3C76.7,186.2,64.6,198.3,49.6,198.3z"/>
			<path class="st47" d="M49.3,198c-14.9,0-27.1-12.2-27.1-27.1c0-8.9,4.4-17.3,11.7-22.3l3.9-2.7v-29.2c0-6.3,5.1-11.4,11.4-11.4
				c6.3,0,11.4,5.1,11.4,11.4v29.2l3.9,2.7c7.4,5.1,11.7,13.4,11.7,22.3C76.4,185.9,64.3,198,49.3,198z"/>
			<path class="st48" d="M49,197.7c-14.9,0-27.1-12.1-27.1-27.1c0-8.9,4.4-17.3,11.7-22.3l3.9-2.7v-29.2c0-6.3,5.1-11.4,11.4-11.4
				c6.3,0,11.4,5.1,11.4,11.4v29.2l3.9,2.7c7.3,5.1,11.7,13.4,11.7,22.3C76.1,185.6,64,197.7,49,197.7z"/>
			<path class="st4" d="M48.8,197.4c-14.9,0-27.1-12.1-27.1-27.1c0-8.9,4.4-17.3,11.7-22.3l3.9-2.7v-29.2c0-6.3,5.1-11.4,11.4-11.4
				c6.3,0,11.4,5.1,11.4,11.4v29.2l3.9,2.7c7.3,5.1,11.7,13.4,11.7,22.3C75.8,185.3,63.7,197.4,48.8,197.4z"/>
			<path class="st5" d="M48.5,197.1c-14.9,0-27.1-12.1-27.1-27.1c0-8.9,4.4-17.2,11.7-22.3l3.9-2.7v-29.2c0-6.3,5.1-11.4,11.4-11.4
				c6.3,0,11.4,5.1,11.4,11.4v29.2l3.9,2.7c7.3,5.1,11.7,13.4,11.7,22.3C75.5,185,63.4,197.1,48.5,197.1z"/>
			<path class="st6" d="M48.2,196.8c-14.9,0-27-12.1-27-27c0-8.9,4.4-17.2,11.7-22.3l3.9-2.7v-29.2c0-6.3,5.1-11.4,11.4-11.4
				c6.3,0,11.4,5.1,11.4,11.4v29.2l3.9,2.7c7.3,5.1,11.7,13.4,11.7,22.3C75.2,184.7,63.1,196.8,48.2,196.8z"/>
			<path class="st7" d="M47.9,196.5c-14.9,0-27-12.1-27-27c0-8.9,4.4-17.2,11.7-22.3l3.9-2.7v-29.2c0-6.3,5.1-11.4,11.4-11.4
				c6.3,0,11.4,5.1,11.4,11.4v29.2l3.9,2.7c7.3,5,11.7,13.4,11.7,22.3C74.9,184.4,62.8,196.5,47.9,196.5z"/>
			<path class="st8" d="M47.6,196.2c-14.9,0-27-12.1-27-27c0-8.9,4.4-17.2,11.7-22.3l3.9-2.7V115c0-6.3,5.1-11.4,11.4-11.4
				c6.3,0,11.4,5.1,11.4,11.4v29.2l3.9,2.7c7.3,5,11.7,13.4,11.7,22.3C74.6,184.1,62.5,196.2,47.6,196.2z"/>
			<path class="st9" d="M47.3,195.9c-14.9,0-27-12.1-27-27c0-8.9,4.4-17.2,11.7-22.3l4-2.7v-29.2c0-6.3,5.1-11.4,11.4-11.4
				c6.3,0,11.4,5.1,11.4,11.4v29.2l4,2.7c7.3,5,11.7,13.4,11.7,22.3C74.3,183.8,62.2,195.9,47.3,195.9z"/>
			<path class="st10" d="M47,195.6c-14.9,0-27-12.1-27-27c0-8.9,4.4-17.2,11.7-22.3l4-2.7v-29.2c0-6.3,5.1-11.3,11.3-11.3
				c6.3,0,11.3,5.1,11.3,11.3v29.2l4,2.7c7.3,5,11.7,13.4,11.7,22.3C74,183.5,61.9,195.6,47,195.6z"/>
			<path class="st11" d="M46.8,195.3c-14.9,0-27-12.1-27-27c0-8.9,4.4-17.2,11.7-22.2l4-2.7v-29.2c0-6.2,5.1-11.3,11.3-11.3
				c6.2,0,11.3,5.1,11.3,11.3v29.2l4,2.7c7.3,5,11.7,13.4,11.7,22.2C73.7,183.2,61.6,195.3,46.8,195.3z"/>
			<path class="st12" d="M46.5,195c-14.9,0-27-12.1-27-27c0-8.9,4.4-17.2,11.7-22.2l4-2.7v-29.2c0-6.2,5.1-11.3,11.3-11.3
				c6.2,0,11.3,5.1,11.3,11.3v29.2l4,2.7c7.3,5,11.7,13.3,11.7,22.2C73.4,182.9,61.3,195,46.5,195z"/>
			<path class="st13" d="M46.2,194.7c-14.9,0-27-12.1-27-27c0-8.9,4.4-17.2,11.7-22.2l4-2.7v-29.3c0-6.2,5.1-11.3,11.3-11.3
				c6.2,0,11.3,5.1,11.3,11.3v29.3l4,2.7c7.3,5,11.7,13.3,11.7,22.2C73.2,182.7,61.1,194.7,46.2,194.7z"/>
			<path class="st14" d="M45.9,194.5c-14.9,0-27-12.1-27-27c0-8.9,4.4-17.2,11.7-22.2l4-2.7v-29.3c0-6.2,5.1-11.3,11.3-11.3
				c6.2,0,11.3,5.1,11.3,11.3v29.3l4,2.7c7.3,5,11.7,13.3,11.7,22.2C72.9,182.4,60.8,194.5,45.9,194.5z"/>
			<path class="st15" d="M45.6,194.2c-14.9,0-26.9-12.1-26.9-26.9c0-8.9,4.4-17.2,11.7-22.2l4-2.7V113c0-6.2,5.1-11.3,11.3-11.3
				c6.2,0,11.3,5.1,11.3,11.3v29.3l4,2.7c7.3,5,11.7,13.3,11.7,22.2C72.6,182.1,60.5,194.2,45.6,194.2z"/>
			<path class="st16" d="M45.3,193.9c-14.9,0-26.9-12.1-26.9-26.9c0-8.9,4.4-17.2,11.7-22.2l4-2.7v-29.3c0-6.2,5.1-11.3,11.3-11.3
				c6.2,0,11.3,5.1,11.3,11.3V142l4,2.7c7.3,5,11.7,13.3,11.7,22.2C72.3,181.8,60.2,193.9,45.3,193.9z"/>
			<path class="st17" d="M45,193.6c-14.8,0-26.9-12.1-26.9-26.9c0-8.9,4.4-17.2,11.7-22.2l4-2.7v-29.3c0-6.2,5.1-11.3,11.3-11.3
				c6.2,0,11.3,5.1,11.3,11.3v29.3l4,2.7c7.3,5,11.7,13.3,11.7,22.2C72,181.5,59.9,193.6,45,193.6z"/>
			<path class="st18" d="M44.8,193.3c-14.8,0-26.9-12.1-26.9-26.9c0-8.9,4.4-17.1,11.7-22.2l4-2.8v-29.3c0-6.2,5-11.2,11.2-11.2
				c6.2,0,11.2,5,11.2,11.2v29.3l4,2.8c7.3,5,11.7,13.3,11.7,22.2C71.7,181.2,59.6,193.3,44.8,193.3z"/>
			<path class="st19" d="M44.5,193c-14.8,0-26.9-12.1-26.9-26.9c0-8.9,4.4-17.1,11.7-22.2l4-2.8v-29.3c0-6.2,5-11.2,11.2-11.2
				c6.2,0,11.2,5,11.2,11.2v29.3l4,2.8c7.3,5,11.7,13.3,11.7,22.2C71.4,180.9,59.3,193,44.5,193z"/>
			<path class="st20" d="M44.2,192.7c-14.8,0-26.9-12.1-26.9-26.9c0-8.9,4.4-17.1,11.7-22.2l4-2.8v-29.3c0-6.2,5-11.2,11.2-11.2
				c6.2,0,11.2,5,11.2,11.2v29.3l4,2.8c7.3,5,11.7,13.3,11.7,22.2C71.1,180.6,59,192.7,44.2,192.7z"/>
			<path class="st21" d="M43.9,192.4c-14.8,0-26.9-12.1-26.9-26.9c0-8.8,4.4-17.1,11.6-22.1l4-2.8v-29.3c0-6.2,5-11.2,11.2-11.2
				c6.2,0,11.2,5,11.2,11.2v29.3l4,2.8c7.3,5,11.6,13.3,11.6,22.1C70.8,180.3,58.7,192.4,43.9,192.4z"/>
			<path class="Graphic_x0020_Style_x0020_9" d="M43.6,192.1c-14.8,0-26.9-12.1-26.9-26.9c0-8.8,4.4-17.1,11.6-22.1l4-2.8V111
				c0-6.2,5-11.2,11.2-11.2c6.2,0,11.2,5,11.2,11.2v29.3l4,2.8c7.3,5,11.6,13.3,11.6,22.1C70.5,180,58.4,192.1,43.6,192.1z"/>
		</g>
		<path class="st6" d="M43.6,192.3c-14.9,0-27.1-12.2-27.1-27.1c0-8.9,4.4-17.3,11.7-22.3l3.9-2.7V111c0-6.3,5.1-11.4,11.4-11.4
			c6.3,0,11.4,5.1,11.4,11.4v29.2l3.9,2.7c7.4,5.1,11.7,13.4,11.7,22.3C70.7,180.2,58.6,192.3,43.6,192.3z"/>
		<linearGradient id="SVGID_3_" gradientUnits="userSpaceOnUse" x1="17.7125" y1="145.9356" x2="69.5134" y2="145.9356">
			<stop  offset="0" style="stop-color:#FAAC18"/>
			<stop  offset="1" style="stop-color:#FFCA05"/>
		</linearGradient>
		<path class="st24" d="M43.6,191.1c-14.3,0-25.9-11.6-25.9-25.9c0-8.5,4.2-16.5,11.2-21.3l4.4-3.1V111c0-5.6,4.6-10.2,10.2-10.2
			c5.6,0,10.2,4.6,10.2,10.2v29.8l4.4,3.1c7,4.8,11.2,12.8,11.2,21.3C69.5,179.5,57.9,191.1,43.6,191.1z"/>
		<g>
			<path class="st22" d="M63.4,124.3h-3.6c-0.3,0-0.6-0.3-0.6-0.6s0.3-0.6,0.6-0.6h3.6c0.3,0,0.6,0.3,0.6,0.6S63.7,124.3,63.4,124.3
				z"/>
			<path class="st22" d="M63.4,112.2h-3.6c-0.3,0-0.6-0.3-0.6-0.6c0-0.3,0.3-0.6,0.6-0.6h3.6c0.3,0,0.6,0.3,0.6,0.6
				C64,111.9,63.7,112.2,63.4,112.2z"/>
			<path class="st22" d="M63.4,100.2h-3.6c-0.3,0-0.6-0.3-0.6-0.6c0-0.3,0.3-0.6,0.6-0.6h3.6c0.3,0,0.6,0.3,0.6,0.6
				C64,99.9,63.7,100.2,63.4,100.2z"/>
			<path class="st22" d="M63.4,88.1h-3.6c-0.3,0-0.6-0.3-0.6-0.6c0-0.3,0.3-0.6,0.6-0.6h3.6c0.3,0,0.6,0.3,0.6,0.6
				C64,87.8,63.7,88.1,63.4,88.1z"/>
			<path class="st22" d="M63.4,76.1h-3.6c-0.3,0-0.6-0.3-0.6-0.6c0-0.3,0.3-0.6,0.6-0.6h3.6c0.3,0,0.6,0.3,0.6,0.6
				C64,75.8,63.7,76.1,63.4,76.1z"/>
			<path class="st22" d="M63.4,64h-3.6c-0.3,0-0.6-0.3-0.6-0.6c0-0.3,0.3-0.6,0.6-0.6h3.6c0.3,0,0.6,0.3,0.6,0.6
				C64,63.7,63.7,64,63.4,64z"/>
			<path class="st22" d="M63.4,52h-3.6c-0.3,0-0.6-0.3-0.6-0.6s0.3-0.6,0.6-0.6h3.6c0.3,0,0.6,0.3,0.6,0.6S63.7,52,63.4,52z"/>
			<path class="st22" d="M63.4,39.9h-3.6c-0.3,0-0.6-0.3-0.6-0.6c0-0.3,0.3-0.6,0.6-0.6h3.6c0.3,0,0.6,0.3,0.6,0.6
				C64,39.7,63.7,39.9,63.4,39.9z"/>
			<path class="st22" d="M63.4,27.9h-3.6c-0.3,0-0.6-0.3-0.6-0.6c0-0.3,0.3-0.6,0.6-0.6h3.6c0.3,0,0.6,0.3,0.6,0.6
				C64,27.6,63.7,27.9,63.4,27.9z"/>
		</g>
		<g id="_x33_0_x25_">
			<g>
				<path class="st27" d="M25,169.7c0.7,0.4,2.3,1.1,4,1.1c2.5,0,3.6-1.4,3.6-2.8c0-2.1-2-3-4-3H27v-2.4h1.5c1.5,0,3.5-0.7,3.5-2.5
					c0-1.2-0.9-2.2-2.8-2.2c-1.4,0-2.9,0.6-3.6,1.1l-0.8-2.4c1-0.7,3-1.4,5.1-1.4c3.6,0,5.5,2,5.5,4.3c0,1.8-1.1,3.4-3.3,4.1v0.1
					c2.1,0.4,3.9,2,3.9,4.4c0,3-2.5,5.3-6.9,5.3c-2.1,0-4-0.6-4.9-1.2L25,169.7z"/>
				<path class="st27" d="M51.3,164.2c0,5.7-2.2,9.2-6.4,9.2c-4.1,0-6.2-3.7-6.3-9.1c0-5.5,2.3-9.2,6.5-9.2
					C49.3,155.3,51.3,159,51.3,164.2z M42,164.4c0,4.3,1.2,6.5,3,6.5c2,0,3-2.4,3-6.6c0-4.1-1-6.5-3-6.5
					C43.2,157.8,41.9,160,42,164.4z"/>
				<path class="st27" d="M58.3,163.2c0,3-1.4,4.4-2.8,4.4c-2,0-2.8-2.1-2.8-4.3c0-2.3,1-4.4,2.9-4.4
					C57.6,158.9,58.3,161.2,58.3,163.2z M54.5,163.2c0,1.8,0.3,2.8,0.9,2.8c0.7,0,0.9-1,0.9-2.8c0-1.6-0.2-2.8-0.9-2.8
					C54.8,160.4,54.5,161.4,54.5,163.2z M54.8,173.3l7.6-14.4h1.5l-7.6,14.4H54.8z M66.1,168.9c0,3-1.4,4.4-2.8,4.4
					c-2,0-2.8-2.2-2.8-4.3c0-2.3,1-4.4,2.9-4.4C65.4,164.7,66.1,167,66.1,168.9z M62.3,169c0,1.8,0.3,2.8,0.9,2.8
					c0.7,0,0.9-1,0.9-2.8c0-1.6-0.2-2.8-0.9-2.8C62.7,166.2,62.3,167.2,62.3,169z"/>
			</g>
			<path class="st28" d="M23.8,168.5c0.7,0.4,2.3,1.1,4,1.1c2.5,0,3.6-1.4,3.6-2.8c0-2.1-2-3-4-3h-1.5v-2.4h1.5
				c1.5,0,3.5-0.7,3.5-2.5c0-1.2-0.9-2.2-2.8-2.2c-1.4,0-2.9,0.6-3.6,1.1l-0.8-2.4c1-0.7,3-1.4,5.1-1.4c3.6,0,5.5,2,5.5,4.3
				c0,1.8-1.1,3.4-3.3,4.1v0.1c2.1,0.4,3.9,2,3.9,4.4c0,3-2.5,5.3-6.9,5.3c-2.1,0-4-0.6-4.9-1.2L23.8,168.5z"/>
			<path class="st28" d="M50.1,163c0,5.7-2.2,9.2-6.4,9.2c-4.1,0-6.2-3.7-6.3-9.1c0-5.5,2.3-9.2,6.5-9.2
				C48.1,154,50.1,157.8,50.1,163z M40.8,163.2c0,4.3,1.2,6.5,3,6.5c2,0,3-2.4,3-6.6c0-4.1-1-6.5-3-6.5
				C42,156.6,40.7,158.8,40.8,163.2z"/>
			<path class="st28" d="M57,162c0,3-1.4,4.4-2.8,4.4c-2,0-2.8-2.1-2.8-4.3c0-2.3,1-4.4,2.9-4.4C56.4,157.7,57,160,57,162z
				 M53.3,162c0,1.8,0.3,2.8,0.9,2.8c0.7,0,0.9-1,0.9-2.8c0-1.6-0.2-2.8-0.9-2.8C53.6,159.2,53.3,160.2,53.3,162z M53.6,172.1
				l7.6-14.4h1.5l-7.6,14.4H53.6z M64.9,167.7c0,3-1.4,4.4-2.8,4.4c-2,0-2.8-2.2-2.8-4.3c0-2.3,1-4.4,2.9-4.4
				C64.2,163.5,64.9,165.8,64.9,167.7z M61.1,167.8c0,1.8,0.3,2.8,0.9,2.8c0.6,0,0.9-1,0.9-2.8c0-1.6-0.2-2.8-0.9-2.8
				C61.4,165,61.1,166,61.1,167.8z"/>
		</g>
	</g>
</g>
</svg>
