<?xml version="1.0" encoding="utf-8"?>
<!-- Generator: Adobe Illustrator 22.0.1, SVG Export Plug-In . SVG Version: 6.00 Build 0)  -->
<svg version="1.1" xmlns="http://www.w3.org/2000/svg" xmlns:xlink="http://www.w3.org/1999/xlink" x="0px" y="0px"
	 viewBox="0 0 94.3 212.9" style="enable-background:new 0 0 94.3 212.9;" xml:space="preserve">
<style type="text/css">
	.Graphic_x0020_Style_x0020_10{fill:none;}
	.Graphic_x0020_Style_x0020_11{fill:#808285;}
	.st0{fill:url(#SVGID_1_);}
	.st1{opacity:0;fill:#FFFFFF;}
	.st2{opacity:4.761900e-02;fill:#F9F9F9;}
	.st3{opacity:9.523800e-02;fill:#F3F3F3;}
	.st4{opacity:0.1429;fill:#EDEDEE;}
	.st5{opacity:0.1905;fill:#E7E7E8;}
	.st6{opacity:0.2381;fill:#E1E1E2;}
	.st7{opacity:0.2857;fill:#DBDBDC;}
	.st8{opacity:0.3333;fill:#D5D5D6;}
	.st9{opacity:0.381;fill:#CFCFD1;}
	.st10{opacity:0.4286;fill:#C9C9CB;}
	.st11{opacity:0.4762;fill:#C3C3C5;}
	.st12{opacity:0.5238;fill:#BCBEBF;}
	.st13{opacity:0.5714;fill:#B6B8B9;}
	.st14{opacity:0.619;fill:#B0B2B3;}
	.st15{opacity:0.6667;fill:#AAACAE;}
	.st16{opacity:0.7143;fill:#A4A6A8;}
	.st17{opacity:0.7619;fill:#9EA0A2;}
	.st18{opacity:0.8095;fill:#989A9C;}
	.st19{opacity:0.8571;fill:#929496;}
	.st20{opacity:0.9048;fill:#8C8E91;}
	.st21{opacity:0.9524;fill:#86888B;}
	.st22{fill:#808285;}
	.st23{fill:url(#SVGID_2_);}
	.st24{fill:url(#SVGID_3_);}
	.st25{fill:url(#SVGID_4_);}
	.st26{fill:#0FA519;}
	.st27{fill:#A7A9AC;}
	.st28{fill:#FFFFFF;}
	.st29{fill:url(#SVGID_5_);}
	.st30{fill:url(#SVGID_6_);}
	.st31{fill:url(#SVGID_7_);}
	.st32{fill:url(#SVGID_8_);}
	.st33{fill:url(#SVGID_9_);}
	.st34{fill:url(#SVGID_10_);}
	.st35{fill:url(#SVGID_11_);}
	.st36{fill:url(#SVGID_12_);}
	.st37{fill:url(#SVGID_13_);}
	.st38{fill:url(#SVGID_14_);}
	.st39{fill:url(#SVGID_15_);}
	.st40{fill:url(#SVGID_16_);}
	.st41{fill:url(#SVGID_17_);}
	.st42{fill:url(#SVGID_18_);}
	.st43{fill:url(#SVGID_19_);}
	.st44{fill:url(#SVGID_20_);}
	.st45{fill:url(#SVGID_21_);}
	.st46{fill:url(#SVGID_22_);}
	.st47{opacity:4.761905e-02;fill:#F9F9F9;}
	.st48{opacity:9.523810e-02;fill:#F3F3F3;}
	.st49{fill:url(#SVGID_23_);}
	.st50{fill:url(#SVGID_24_);}
	.st51{fill:url(#SVGID_25_);}
	.st52{fill:#E22B13;}
	.st53{fill:url(#SVGID_26_);}
	.st54{fill:url(#SVGID_27_);}
	.st55{fill:url(#SVGID_28_);}
	.st56{fill:url(#SVGID_29_);}
	.st57{fill:url(#SVGID_30_);}
	.st58{fill:url(#SVGID_31_);}
	.st59{fill:url(#SVGID_32_);}
	.st60{fill:url(#SVGID_33_);}
	.st61{fill:url(#SVGID_34_);}
</style>
<g id="bg">
</g>
<g id="templates">
	<g id="_x35_">
		<g>
			<path class="st1" d="M51.5,208.8c-20.1,0-36.4-16.3-36.4-36.4c0-11.8,5.7-22.8,15.3-29.7l0-105.5c0-11.7,9.5-21.2,21.2-21.2
				c11.7,0,21.2,9.5,21.2,21.2v105.5c9.6,6.8,15.3,17.9,15.3,29.7C87.9,192.4,71.6,208.8,51.5,208.8z"/>
			<path class="st47" d="M29.9,36.8c0-11.7,9.5-21.1,21.1-21.1c11.7,0,21.1,9.5,21.1,21.1v105.5c0,0,0.1,0,0.1,0.1
				c9.5,6.8,15.2,17.8,15.2,29.6c0,20.1-16.3,36.4-36.4,36.4S14.7,192,14.7,171.9c0-11.8,5.7-22.8,15.3-29.7L29.9,36.8z"/>
			<path class="st48" d="M29.5,36.3c0-11.7,9.5-21.1,21.1-21.1c11.7,0,21.1,9.5,21.1,21.1v105.5c0,0,0.1,0.1,0.1,0.1
				c9.5,6.8,15.2,17.8,15.2,29.6c0,20.1-16.3,36.4-36.4,36.4s-36.4-16.3-36.4-36.4c0-11.8,5.7-22.8,15.3-29.7L29.5,36.3z"/>
			<path class="st4" d="M29.1,35.9c0-11.6,9.5-21.1,21.1-21.1c11.6,0,21.1,9.5,21.1,21.1v105.5c0,0,0.1,0.1,0.1,0.1
				c9.5,6.8,15.2,17.8,15.2,29.6c0,20.1-16.3,36.4-36.4,36.4s-36.4-16.3-36.4-36.4c0-11.8,5.7-22.8,15.3-29.6L29.1,35.9z"/>
			<path class="st5" d="M28.7,35.5c0-11.6,9.5-21.1,21.1-21.1c11.6,0,21.1,9.5,21.1,21.1V141c0,0,0.1,0.1,0.1,0.1
				c9.5,6.8,15.2,17.8,15.2,29.6c0,20.1-16.3,36.4-36.4,36.4s-36.4-16.3-36.4-36.4c0-11.8,5.7-22.8,15.3-29.6L28.7,35.5z"/>
			<path class="st6" d="M28.3,35.1c0-11.6,9.5-21.1,21.1-21.1c11.6,0,21.1,9.5,21.1,21.1v105.5c0,0,0.1,0.1,0.1,0.1
				c9.5,6.8,15.2,17.8,15.2,29.6c0,20.1-16.3,36.4-36.4,36.4S13,190.3,13,170.2c0-11.8,5.7-22.8,15.3-29.6L28.3,35.1z"/>
			<path class="st7" d="M27.9,34.7c0-11.6,9.5-21.1,21.1-21.1c11.6,0,21.1,9.5,21.1,21.1v105.5c0,0,0.1,0.1,0.1,0.1
				c9.5,6.8,15.2,17.8,15.2,29.6c0,20.1-16.3,36.4-36.4,36.4s-36.4-16.3-36.4-36.4c0-11.8,5.7-22.8,15.3-29.6L27.9,34.7z"/>
			<path class="st8" d="M27.5,34.3c0-11.6,9.5-21.1,21.1-21.1c11.6,0,21.1,9.5,21.1,21.1v105.5c0,0,0.1,0.1,0.1,0.1
				c9.5,6.8,15.2,17.8,15.2,29.5c0,20-16.3,36.4-36.4,36.4s-36.4-16.3-36.4-36.4c0-11.7,5.7-22.8,15.3-29.6L27.5,34.3z"/>
			<path class="st9" d="M27.1,33.8c0-11.6,9.4-21.1,21.1-21.1c11.6,0,21.1,9.4,21.1,21.1v105.5c0,0,0.1,0.1,0.1,0.1
				c9.5,6.8,15.2,17.8,15.2,29.5c0,20-16.3,36.3-36.3,36.3S11.8,189,11.8,169c0-11.7,5.7-22.8,15.3-29.6L27.1,33.8z"/>
			<path class="st10" d="M26.7,33.4c0-11.6,9.4-21.1,21.1-21.1c11.6,0,21.1,9.4,21.1,21.1V139c0,0,0.1,0.1,0.1,0.1
				c9.5,6.8,15.2,17.8,15.2,29.5c0,20-16.3,36.3-36.3,36.3s-36.3-16.3-36.3-36.3c0-11.7,5.7-22.8,15.3-29.6L26.7,33.4z"/>
			<path class="st11" d="M26.3,33c0-11.6,9.4-21,21-21c11.6,0,21,9.4,21,21v105.5c0,0,0.1,0.1,0.1,0.1c9.5,6.8,15.2,17.8,15.2,29.5
				c0,20-16.3,36.3-36.3,36.3S11,188.2,11,168.1c0-11.7,5.7-22.8,15.3-29.6L26.3,33z"/>
			<path class="st12" d="M25.9,32.6c0-11.6,9.4-21,21-21c11.6,0,21,9.4,21,21v105.5c0,0,0.1,0.1,0.1,0.1
				c9.5,6.8,15.2,17.8,15.2,29.5c0,20-16.3,36.3-36.3,36.3c-20,0-36.3-16.3-36.3-36.3c0-11.7,5.7-22.8,15.3-29.6L25.9,32.6z"/>
			<path class="st13" d="M25.5,32.2c0-11.6,9.4-21,21-21c11.6,0,21,9.4,21,21v105.6c0,0,0.1,0.1,0.1,0.1
				c9.5,6.8,15.2,17.8,15.2,29.5c0,20-16.3,36.3-36.3,36.3c-20,0-36.3-16.3-36.3-36.3c0-11.7,5.7-22.7,15.3-29.6L25.5,32.2z"/>
			<path class="st14" d="M25.1,31.7c0-11.6,9.4-21,21-21c11.6,0,21,9.4,21,21v105.6c0,0,0.1,0.1,0.1,0.1
				c9.5,6.8,15.2,17.8,15.2,29.5c0,20-16.3,36.3-36.3,36.3c-20,0-36.3-16.3-36.3-36.3c0-11.7,5.7-22.7,15.3-29.6L25.1,31.7z"/>
			<path class="st15" d="M24.7,31.3c0-11.6,9.4-21,21-21s21,9.4,21,21v105.6c0,0,0.1,0.1,0.1,0.1c9.5,6.8,15.2,17.8,15.2,29.5
				c0,20-16.3,36.3-36.3,36.3c-20,0-36.3-16.3-36.3-36.3c0-11.7,5.7-22.7,15.3-29.6L24.7,31.3z"/>
			<path class="st16" d="M24.2,30.9c0-11.6,9.4-21,21-21s21,9.4,21,21v105.6c0,0,0.1,0.1,0.1,0.1c9.5,6.8,15.2,17.8,15.2,29.5
				c0,20-16.3,36.3-36.3,36.3C25.2,202.3,9,186,9,166.1c0-11.7,5.7-22.7,15.3-29.6L24.2,30.9z"/>
			<path class="st17" d="M23.8,30.5c0-11.6,9.4-21,21-21s21,9.4,21,21v105.6c0,0,0.1,0.1,0.1,0.1c9.5,6.8,15.2,17.8,15.2,29.5
				c0,20-16.3,36.3-36.3,36.3c-20,0-36.3-16.3-36.3-36.3c0-11.7,5.7-22.7,15.3-29.6L23.8,30.5z"/>
			<path class="st18" d="M23.4,30.1c0-11.6,9.4-21,21-21s21,9.4,21,21v105.6c0,0,0.1,0.1,0.1,0.1c9.5,6.8,15.2,17.8,15.2,29.5
				c0,20-16.3,36.2-36.2,36.2c-20,0-36.2-16.3-36.2-36.2c0-11.7,5.7-22.7,15.3-29.6L23.4,30.1z"/>
			<path class="st19" d="M23,29.6c0-11.6,9.4-21,21-21s21,9.4,21,21v105.6c0,0,0.1,0.1,0.1,0.1c9.5,6.8,15.2,17.8,15.2,29.5
				c0,20-16.3,36.2-36.2,36.2c-20,0-36.2-16.3-36.2-36.2c0-11.7,5.7-22.7,15.3-29.6L23,29.6z"/>
			<path class="st20" d="M22.6,29.2c0-11.5,9.4-20.9,20.9-20.9s20.9,9.4,20.9,20.9v105.6c0,0,0.1,0.1,0.1,0.1
				c9.5,6.8,15.2,17.8,15.2,29.5c0,20-16.2,36.2-36.2,36.2c-20,0-36.2-16.2-36.2-36.2c0-11.7,5.7-22.7,15.3-29.6L22.6,29.2z"/>
			<path class="st21" d="M22.2,28.8c0-11.5,9.4-20.9,20.9-20.9s20.9,9.4,20.9,20.9v105.6c0,0,0.1,0.1,0.1,0.1
				c9.5,6.8,15.2,17.8,15.2,29.5c0,20-16.2,36.2-36.2,36.2c-20,0-36.2-16.2-36.2-36.2c0-11.7,5.7-22.7,15.3-29.5L22.2,28.8z"/>
			<path class="Graphic_x0020_Style_x0020_11" d="M42.7,199.7c-20,0-36.2-16.2-36.2-36.2c0-11.7,5.7-22.7,15.2-29.5l0.1-0.1l0-105.6
				c0-11.5,9.4-20.9,20.9-20.9s20.9,9.4,20.9,20.9V134l0.1,0.1c9.5,6.8,15.2,17.8,15.2,29.5C78.9,183.5,62.7,199.7,42.7,199.7z"/>
		</g>
		<linearGradient id="SVGID_1_" gradientUnits="userSpaceOnUse" x1="6.2871" y1="103.6053" x2="79.1488" y2="103.6053">
			<stop  offset="0" style="stop-color:#FFFFFF"/>
			<stop  offset="1" style="stop-color:#D1D3D4"/>
		</linearGradient>
		<path class="st0" d="M42.7,200c-20.1,0-36.4-16.3-36.4-36.4c0-11.8,5.7-22.8,15.3-29.7l0-105.5c0-11.7,9.5-21.2,21.2-21.2
			c11.7,0,21.2,9.5,21.2,21.2v105.5c9.6,6.8,15.3,17.9,15.3,29.7C79.1,183.6,62.8,200,42.7,200z"/>
		<linearGradient id="SVGID_2_" gradientUnits="userSpaceOnUse" x1="7.4623" y1="103.6053" x2="77.9737" y2="103.6053">
			<stop  offset="0" style="stop-color:#D1D3D4"/>
			<stop  offset="1" style="stop-color:#FFFFFF"/>
		</linearGradient>
		<path class="st23" d="M42.7,198.8c-19.4,0-35.3-15.8-35.3-35.3c0-11.6,5.7-22.5,15.3-29.1l0-106.1c0-11,9-20,20-20s20,9,20,20
			v106.1c9.6,6.6,15.3,17.4,15.3,29C78,183,62.2,198.8,42.7,198.8z"/>
		<g>
			<path class="st1" d="M48.6,195.8c-14.6,0-26.4-11.9-26.4-26.4c0-8.7,4.3-16.9,11.5-21.8l3.8-2.6V93c0-6.2,5-11.2,11.2-11.2
				c6.2,0,11.2,5,11.2,11.2v52l3.8,2.6c7.2,4.9,11.5,13.1,11.5,21.8C75,184,63.1,195.8,48.6,195.8z"/>
			<path class="st47" d="M48.3,195.5c-14.6,0-26.4-11.9-26.4-26.4c0-8.7,4.3-16.8,11.5-21.8l3.8-2.6v-52c0-6.1,5-11.2,11.2-11.2
				c6.1,0,11.2,5,11.2,11.2v52l3.8,2.6c7.2,4.9,11.5,13.1,11.5,21.8C74.7,183.7,62.9,195.5,48.3,195.5z"/>
			<path class="st48" d="M48,195.3c-14.6,0-26.4-11.9-26.4-26.4c0-8.7,4.3-16.8,11.5-21.8l3.8-2.6v-52c0-6.1,5-11.1,11.1-11.1
				c6.1,0,11.1,5,11.1,11.1v52l3.8,2.6c7.2,4.9,11.5,13.1,11.5,21.8C74.4,183.4,62.6,195.3,48,195.3z"/>
			<path class="st4" d="M47.7,195c-14.6,0-26.4-11.8-26.4-26.4c0-8.7,4.3-16.8,11.4-21.8l3.8-2.6v-52c0-6.1,5-11.1,11.1-11.1
				c6.1,0,11.1,5,11.1,11.1v52l3.8,2.6c7.2,4.9,11.4,13.1,11.4,21.8C74.1,183.1,62.3,195,47.7,195z"/>
			<path class="st5" d="M47.5,194.7c-14.6,0-26.4-11.8-26.4-26.4c0-8.7,4.3-16.8,11.4-21.8l3.8-2.6v-52c0-6.1,5-11.1,11.1-11.1
				c6.1,0,11.1,5,11.1,11.1v52l3.8,2.6c7.2,4.9,11.4,13.1,11.4,21.8C73.9,182.8,62,194.7,47.5,194.7z"/>
			<path class="st6" d="M47.2,194.4c-14.5,0-26.4-11.8-26.4-26.4c0-8.7,4.3-16.8,11.4-21.7l3.8-2.6v-52c0-6.1,5-11.1,11.1-11.1
				c6.1,0,11.1,5,11.1,11.1v52l3.8,2.6c7.2,4.9,11.4,13.1,11.4,21.7C73.6,182.5,61.7,194.4,47.2,194.4z"/>
			<path class="st7" d="M46.9,194.1c-14.5,0-26.4-11.8-26.4-26.4c0-8.7,4.3-16.8,11.4-21.7l3.8-2.6v-52c0-6.1,5-11.1,11.1-11.1
				c6.1,0,11.1,5,11.1,11.1v52l3.8,2.6c7.2,4.9,11.4,13.1,11.4,21.7C73.3,182.3,61.4,194.1,46.9,194.1z"/>
			<path class="st8" d="M46.6,193.8c-14.5,0-26.4-11.8-26.4-26.4c0-8.7,4.3-16.8,11.4-21.7l3.9-2.7v-52c0-6.1,5-11.1,11.1-11.1
				c6.1,0,11.1,5,11.1,11.1v52l3.9,2.7c7.2,4.9,11.4,13,11.4,21.7C73,182,61.2,193.8,46.6,193.8z"/>
			<path class="st9" d="M46.3,193.5c-14.5,0-26.4-11.8-26.4-26.4c0-8.7,4.3-16.8,11.4-21.7l3.9-2.7v-52c0-6.1,5-11.1,11.1-11.1
				c6.1,0,11.1,5,11.1,11.1v52l3.9,2.7c7.2,4.9,11.4,13,11.4,21.7C72.7,181.7,60.9,193.5,46.3,193.5z"/>
			<path class="st10" d="M46.1,193.2c-14.5,0-26.3-11.8-26.3-26.3c0-8.7,4.3-16.8,11.4-21.7l3.9-2.7v-52c0-6.1,5-11.1,11.1-11.1
				s11.1,5,11.1,11.1v52l3.9,2.7c7.1,4.9,11.4,13,11.4,21.7C72.4,181.4,60.6,193.2,46.1,193.2z"/>
			<path class="st11" d="M45.8,192.9c-14.5,0-26.3-11.8-26.3-26.3c0-8.7,4.3-16.8,11.4-21.7l3.9-2.7v-52c0-6.1,5-11.1,11.1-11.1
				s11.1,5,11.1,11.1v52l3.9,2.7c7.1,4.9,11.4,13,11.4,21.7C72.1,181.1,60.3,192.9,45.8,192.9z"/>
			<path class="st12" d="M45.5,192.6c-14.5,0-26.3-11.8-26.3-26.3c0-8.7,4.3-16.8,11.4-21.7l3.9-2.7v-52c0-6.1,5-11,11-11
				s11,5,11,11v52l3.9,2.7c7.1,4.9,11.4,13,11.4,21.7C71.8,180.8,60,192.6,45.5,192.6z"/>
			<path class="st13" d="M45.2,192.4c-14.5,0-26.3-11.8-26.3-26.3c0-8.7,4.3-16.8,11.4-21.7l3.9-2.7v-52c0-6.1,4.9-11,11-11
				c6.1,0,11,4.9,11,11v52l3.9,2.7c7.1,4.9,11.4,13,11.4,21.7C71.5,180.6,59.7,192.4,45.2,192.4z"/>
			<path class="st14" d="M44.9,192.1c-14.5,0-26.3-11.8-26.3-26.3c0-8.7,4.3-16.8,11.4-21.7l3.9-2.7v-52c0-6.1,4.9-11,11-11
				c6.1,0,11,4.9,11,11v52l3.9,2.7c7.1,4.9,11.4,13,11.4,21.7C71.2,180.3,59.4,192.1,44.9,192.1z"/>
			<path class="st15" d="M44.7,191.8c-14.5,0-26.3-11.8-26.3-26.3c0-8.7,4.3-16.8,11.4-21.7l3.9-2.7V89.1c0-6.1,4.9-11,11-11
				c6.1,0,11,4.9,11,11v52.1l3.9,2.7c7.1,4.9,11.4,13,11.4,21.7C71,180,59.2,191.8,44.7,191.8z"/>
			<path class="st16" d="M44.4,191.5c-14.5,0-26.3-11.8-26.3-26.3c0-8.7,4.3-16.7,11.4-21.7l3.9-2.7V88.8c0-6.1,4.9-11,11-11
				c6.1,0,11,4.9,11,11v52.1l3.9,2.7c7.1,4.9,11.4,13,11.4,21.7C70.7,179.7,58.9,191.5,44.4,191.5z"/>
			<path class="st17" d="M44.1,191.2c-14.5,0-26.3-11.8-26.3-26.3c0-8.6,4.3-16.7,11.4-21.6l3.9-2.7V88.5c0-6.1,4.9-11,11-11
				c6.1,0,11,4.9,11,11v52.1l3.9,2.7c7.1,4.9,11.4,13,11.4,21.6C70.4,179.4,58.6,191.2,44.1,191.2z"/>
			<path class="st18" d="M43.8,190.9c-14.5,0-26.3-11.8-26.3-26.3c0-8.6,4.3-16.7,11.4-21.6l3.9-2.7V88.3c0-6.1,4.9-11,11-11
				c6.1,0,11,4.9,11,11v52.1l3.9,2.7c7.1,4.9,11.4,13,11.4,21.6C70.1,179.1,58.3,190.9,43.8,190.9z"/>
			<path class="st19" d="M43.6,190.6c-14.5,0-26.2-11.8-26.2-26.2c0-8.6,4.3-16.7,11.4-21.6l3.9-2.7V88c0-6,4.9-11,11-11
				c6,0,11,4.9,11,11v52.1l3.9,2.7c7.1,4.9,11.4,13,11.4,21.6C69.8,178.8,58,190.6,43.6,190.6z"/>
			<path class="st20" d="M43.3,190.3c-14.5,0-26.2-11.8-26.2-26.2c0-8.6,4.2-16.7,11.4-21.6l3.9-2.7V87.7c0-6,4.9-11,11-11
				c6,0,11,4.9,11,11v52.1l3.9,2.7c7.1,4.9,11.4,13,11.4,21.6C69.5,178.6,57.7,190.3,43.3,190.3z"/>
			<path class="st21" d="M43,190c-14.5,0-26.2-11.8-26.2-26.2c0-8.6,4.2-16.7,11.4-21.6l3.9-2.7V87.4c0-6,4.9-10.9,10.9-10.9
				c6,0,10.9,4.9,10.9,10.9v52.1l3.9,2.7c7.1,4.9,11.4,13,11.4,21.6C69.2,178.3,57.5,190,43,190z"/>
			<path class="Graphic_x0020_Style_x0020_11" d="M42.7,189.7c-14.5,0-26.2-11.8-26.2-26.2c0-8.6,4.2-16.7,11.4-21.6l3.9-2.7V87.2
				c0-6,4.9-10.9,10.9-10.9c6,0,10.9,4.9,10.9,10.9v52.1l3.9,2.7c7.1,4.9,11.4,13,11.4,21.6C68.9,178,57.2,189.7,42.7,189.7z"/>
		</g>
		<linearGradient id="SVGID_3_" gradientUnits="userSpaceOnUse" x1="16.2762" y1="132.9851" x2="69.1597" y2="132.9851">
			<stop  offset="0" style="stop-color:#D1D3D4"/>
			<stop  offset="1" style="stop-color:#FFFFFF"/>
		</linearGradient>
		<path class="st24" d="M42.7,190c-14.6,0-26.4-11.9-26.4-26.4c0-8.7,4.3-16.9,11.5-21.8l3.8-2.6v-52c0-6.2,5-11.2,11.2-11.2
			c6.2,0,11.2,5,11.2,11.2v52l3.8,2.6c7.2,4.9,11.5,13.1,11.5,21.8C69.2,178.1,57.3,190,42.7,190z"/>
		<path class="st26" d="M42.7,188.8c-13.9,0-25.3-11.3-25.3-25.3c0-8.3,4.1-16.1,11-20.8l4.3-3V87.2c0-5.5,4.5-10,10-10
			s10,4.5,10,10v52.6l4.3,3c6.9,4.7,11,12.5,11,20.8C68,177.5,56.7,188.8,42.7,188.8z"/>
		<g>
			<path class="st22" d="M62,123.6h-3.5c-0.3,0-0.6-0.3-0.6-0.6c0-0.3,0.3-0.6,0.6-0.6H62c0.3,0,0.6,0.3,0.6,0.6
				C62.6,123.3,62.3,123.6,62,123.6z"/>
			<path class="st22" d="M62,111.8h-3.5c-0.3,0-0.6-0.3-0.6-0.6s0.3-0.6,0.6-0.6H62c0.3,0,0.6,0.3,0.6,0.6S62.3,111.8,62,111.8z"/>
			<path class="st22" d="M62,100.1h-3.5c-0.3,0-0.6-0.3-0.6-0.6s0.3-0.6,0.6-0.6H62c0.3,0,0.6,0.3,0.6,0.6S62.3,100.1,62,100.1z"/>
			<path class="st22" d="M62,88.3h-3.5c-0.3,0-0.6-0.3-0.6-0.6c0-0.3,0.3-0.6,0.6-0.6H62c0.3,0,0.6,0.3,0.6,0.6
				C62.6,88.1,62.3,88.3,62,88.3z"/>
			<path class="st22" d="M62,76.6h-3.5c-0.3,0-0.6-0.3-0.6-0.6c0-0.3,0.3-0.6,0.6-0.6H62c0.3,0,0.6,0.3,0.6,0.6
				C62.6,76.3,62.3,76.6,62,76.6z"/>
			<path class="st22" d="M62,64.8h-3.5c-0.3,0-0.6-0.3-0.6-0.6c0-0.3,0.3-0.6,0.6-0.6H62c0.3,0,0.6,0.3,0.6,0.6
				C62.6,64.6,62.3,64.8,62,64.8z"/>
			<path class="st22" d="M62,53.1h-3.5c-0.3,0-0.6-0.3-0.6-0.6s0.3-0.6,0.6-0.6H62c0.3,0,0.6,0.3,0.6,0.6S62.3,53.1,62,53.1z"/>
			<path class="st22" d="M62,41.3h-3.5c-0.3,0-0.6-0.3-0.6-0.6c0-0.3,0.3-0.6,0.6-0.6H62c0.3,0,0.6,0.3,0.6,0.6
				C62.6,41.1,62.3,41.3,62,41.3z"/>
			<path class="st22" d="M62,29.6h-3.5c-0.3,0-0.6-0.3-0.6-0.6c0-0.3,0.3-0.6,0.6-0.6H62c0.3,0,0.6,0.3,0.6,0.6
				C62.6,29.3,62.3,29.6,62,29.6z"/>
		</g>
		<g id="_x35_0_x25_">
			<g>
				<path class="st27" d="M34.8,156.8h-6.6l-0.5,3.4c0.4-0.1,0.7-0.1,1.2-0.1c1.5,0,3,0.3,4.2,1.1c1.3,0.8,2.2,2.3,2.2,4.4
					c0,3.3-2.7,5.9-7,5.9c-2,0-3.6-0.5-4.5-1l0.7-2.5c0.7,0.4,2.2,0.9,3.8,0.9c1.9,0,3.7-1.1,3.7-3.1c0-2-1.5-3.3-4.9-3.3
					c-1,0-1.7,0.1-2.4,0.2l1.1-8.7h8.9V156.8z"/>
				<path class="st27" d="M50.2,162.6c0,5.5-2.2,9-6.3,9c-4,0-6.1-3.6-6.1-8.8c0-5.3,2.3-8.9,6.3-8.9
					C48.3,153.8,50.2,157.5,50.2,162.6z M41.1,162.8c0,4.2,1.1,6.3,2.9,6.3c1.9,0,2.9-2.3,2.9-6.5c0-4-1-6.3-2.9-6.3
					C42.3,156.3,41.1,158.5,41.1,162.8z"/>
				<path class="st27" d="M57,161.6c0,2.9-1.3,4.3-2.7,4.3c-1.9,0-2.8-2.1-2.8-4.2c0-2.2,1-4.3,2.8-4.3
					C56.3,157.4,57,159.6,57,161.6z M53.4,161.6c0,1.8,0.3,2.7,0.9,2.7c0.7,0,0.9-1,0.9-2.7c0-1.6-0.2-2.8-0.9-2.8
					C53.7,158.8,53.4,159.9,53.4,161.6z M53.6,171.5l7.4-14.1h1.4l-7.4,14.1H53.6z M64.6,167.2c0,2.9-1.3,4.3-2.7,4.3
					c-1.9,0-2.8-2.1-2.8-4.2c0-2.2,1-4.3,2.8-4.3C64,163,64.6,165.3,64.6,167.2z M61,167.2c0,1.8,0.3,2.7,0.9,2.7
					c0.6,0,0.9-1,0.9-2.7c0-1.6-0.2-2.7-0.9-2.7C61.3,164.5,61,165.5,61,167.2z"/>
			</g>
			<path class="st28" d="M33.7,155.6H27l-0.5,3.4c0.4-0.1,0.7-0.1,1.2-0.1c1.5,0,3,0.3,4.2,1.1c1.3,0.8,2.2,2.3,2.2,4.4
				c0,3.3-2.7,5.9-7,5.9c-2,0-3.6-0.5-4.5-1l0.7-2.5c0.7,0.4,2.2,0.9,3.8,0.9c1.9,0,3.7-1.1,3.7-3.1c0-2-1.5-3.3-4.9-3.3
				c-1,0-1.7,0.1-2.4,0.2l1.1-8.7h8.9V155.6z"/>
			<path class="st28" d="M49,161.4c0,5.5-2.2,9-6.3,9c-4,0-6.1-3.6-6.1-8.8c0-5.3,2.3-8.9,6.3-8.9C47.1,152.6,49,156.3,49,161.4z
				 M39.9,161.6c0,4.2,1.1,6.3,2.9,6.3c1.9,0,2.9-2.3,2.9-6.5c0-4-1-6.3-2.9-6.3C41.1,155.1,39.9,157.3,39.9,161.6z"/>
			<path class="st28" d="M55.8,160.4c0,2.9-1.3,4.3-2.7,4.3c-1.9,0-2.8-2.1-2.8-4.2c0-2.2,1-4.3,2.8-4.3
				C55.2,156.2,55.8,158.5,55.8,160.4z M52.2,160.4c0,1.8,0.3,2.7,0.9,2.7c0.7,0,0.9-1,0.9-2.7c0-1.6-0.2-2.8-0.9-2.8
				C52.5,157.7,52.2,158.7,52.2,160.4z M52.5,170.3l7.4-14.1h1.4l-7.4,14.1H52.5z M63.5,166c0,2.9-1.3,4.3-2.7,4.3
				c-1.9,0-2.8-2.1-2.8-4.2c0-2.2,1-4.3,2.8-4.3C62.8,161.8,63.5,164.1,63.5,166z M59.8,166c0,1.8,0.3,2.7,0.9,2.7
				c0.6,0,0.9-1,0.9-2.7c0-1.6-0.2-2.7-0.9-2.7C60.1,163.3,59.8,164.3,59.8,166z"/>
		</g>
	</g>
</g>
</svg>
