<?xml version="1.0" encoding="utf-8"?>
<!-- Generator: Adobe Illustrator 22.0.1, SVG Export Plug-In . SVG Version: 6.00 Build 0)  -->
<svg version="1.1" xmlns="http://www.w3.org/2000/svg" xmlns:xlink="http://www.w3.org/1999/xlink" x="0px" y="0px"
	 viewBox="0 0 94.3 212.9" style="enable-background:new 0 0 94.3 212.9;" xml:space="preserve">
<style type="text/css">
	.Graphic_x0020_Style_x0020_6{fill:none;}
	.Graphic_x0020_Style_x0020_7{fill:#808285;}
	.st0{fill:url(#SVGID_1_);}
	.st1{opacity:0;fill:#FFFFFF;}
	.st2{opacity:4.761900e-02;fill:#F9F9F9;}
	.st3{opacity:9.523800e-02;fill:#F3F3F3;}
	.st4{opacity:0.1429;fill:#EDEDEE;}
	.st5{opacity:0.1905;fill:#E7E7E8;}
	.st6{opacity:0.2381;fill:#E1E1E2;}
	.st7{opacity:0.2857;fill:#DBDBDC;}
	.st8{opacity:0.3333;fill:#D5D5D6;}
	.st9{opacity:0.381;fill:#CFCFD1;}
	.st10{opacity:0.4286;fill:#C9C9CB;}
	.st11{opacity:0.4762;fill:#C3C3C5;}
	.st12{opacity:0.5238;fill:#BCBEBF;}
	.st13{opacity:0.5714;fill:#B6B8B9;}
	.st14{opacity:0.619;fill:#B0B2B3;}
	.st15{opacity:0.6667;fill:#AAACAE;}
	.st16{opacity:0.7143;fill:#A4A6A8;}
	.st17{opacity:0.7619;fill:#9EA0A2;}
	.st18{opacity:0.8095;fill:#989A9C;}
	.st19{opacity:0.8571;fill:#929496;}
	.st20{opacity:0.9048;fill:#8C8E91;}
	.st21{opacity:0.9524;fill:#86888B;}
	.st22{fill:#808285;}
	.st23{fill:url(#SVGID_2_);}
	.st24{fill:url(#SVGID_3_);}
	.st25{fill:url(#SVGID_4_);}
	.st26{fill:#0FA519;}
	.st27{fill:#A7A9AC;}
	.st28{fill:#FFFFFF;}
	.st29{fill:url(#SVGID_5_);}
	.st30{fill:url(#SVGID_6_);}
	.st31{fill:url(#SVGID_7_);}
	.st32{fill:url(#SVGID_8_);}
	.st33{fill:url(#SVGID_9_);}
	.st34{fill:url(#SVGID_10_);}
	.st35{fill:url(#SVGID_11_);}
	.st36{fill:url(#SVGID_12_);}
	.st37{fill:url(#SVGID_13_);}
	.st38{fill:url(#SVGID_14_);}
	.st39{fill:url(#SVGID_15_);}
	.st40{fill:url(#SVGID_16_);}
	.st41{fill:url(#SVGID_17_);}
	.st42{fill:url(#SVGID_18_);}
	.st43{fill:url(#SVGID_19_);}
	.st44{fill:url(#SVGID_20_);}
	.st45{fill:url(#SVGID_21_);}
	.st46{fill:url(#SVGID_22_);}
	.st47{opacity:4.761905e-02;fill:#F9F9F9;}
	.st48{opacity:9.523810e-02;fill:#F3F3F3;}
	.st49{fill:url(#SVGID_23_);}
	.st50{fill:url(#SVGID_24_);}
	.st51{fill:url(#SVGID_25_);}
	.st52{fill:#E22B13;}
	.st53{fill:url(#SVGID_26_);}
	.st54{fill:url(#SVGID_27_);}
	.st55{fill:url(#SVGID_28_);}
	.st56{fill:url(#SVGID_29_);}
	.st57{fill:url(#SVGID_30_);}
	.st58{fill:url(#SVGID_31_);}
	.st59{fill:url(#SVGID_32_);}
	.st60{fill:url(#SVGID_33_);}
	.st61{fill:url(#SVGID_34_);}
</style>
<g id="bg">
</g>
<g id="templates">
	<g id="_x32_">
		<g>
			<path class="st1" d="M51.7,210.3c-20.5,0-37.2-16.7-37.2-37.2c0-12,5.8-23.3,15.6-30.3l0-107.8c0-11.9,9.7-21.6,21.6-21.6
				S73.3,23,73.3,34.9v107.8c9.8,7,15.6,18.3,15.6,30.3C88.9,193.6,72.2,210.3,51.7,210.3z"/>
			<path class="st47" d="M29.6,34.5c0-11.9,9.7-21.6,21.6-21.6s21.6,9.7,21.6,21.6v107.8c0,0,0.1,0.1,0.1,0.1
				c9.7,7,15.5,18.2,15.5,30.2c0,20.5-16.7,37.2-37.2,37.2S14,193.2,14,172.7c0-12,5.8-23.3,15.6-30.3L29.6,34.5z"/>
			<path class="st48" d="M29.2,34.1c0-11.9,9.7-21.6,21.6-21.6s21.6,9.7,21.6,21.6v107.8c0,0,0.1,0.1,0.1,0.1
				c9.7,7,15.5,18.2,15.5,30.2c0,20.5-16.7,37.2-37.2,37.2s-37.2-16.7-37.2-37.2c0-12,5.8-23.3,15.6-30.3L29.2,34.1z"/>
			<path class="st4" d="M28.8,33.7c0-11.9,9.7-21.6,21.6-21.6S72,21.8,72,33.7v107.9c0,0,0.1,0.1,0.1,0.1c9.7,7,15.5,18.2,15.5,30.2
				c0,20.5-16.7,37.2-37.2,37.2s-37.2-16.7-37.2-37.2c0-12,5.8-23.3,15.6-30.3L28.8,33.7z"/>
			<path class="st5" d="M28.4,33.2c0-11.9,9.7-21.6,21.6-21.6s21.6,9.7,21.6,21.6v107.9c0,0,0.1,0.1,0.1,0.1
				c9.7,7,15.5,18.2,15.5,30.2c0,20.5-16.7,37.2-37.2,37.2s-37.2-16.7-37.2-37.2c0-12,5.8-23.3,15.6-30.3L28.4,33.2z"/>
			<path class="st6" d="M28,32.8c0-11.9,9.7-21.6,21.6-21.6s21.6,9.7,21.6,21.6v107.9c0,0,0.1,0.1,0.1,0.1
				c9.7,7,15.5,18.2,15.5,30.2c0,20.5-16.7,37.2-37.2,37.2S12.3,191.5,12.3,171c0-12,5.8-23.3,15.6-30.3L28,32.8z"/>
			<path class="st7" d="M27.5,32.4c0-11.9,9.7-21.6,21.6-21.6s21.6,9.7,21.6,21.6v107.9c0,0,0.1,0.1,0.1,0.1
				c9.7,7,15.5,18.2,15.5,30.2c0,20.5-16.7,37.2-37.2,37.2S11.9,191,11.9,170.5c0-12,5.8-23.3,15.6-30.3L27.5,32.4z"/>
			<path class="st8" d="M27.1,31.9c0-11.9,9.7-21.5,21.5-21.5s21.5,9.7,21.5,21.5v107.9c0,0,0.1,0.1,0.1,0.1
				c9.7,7,15.5,18.2,15.5,30.2c0,20.5-16.7,37.2-37.2,37.2s-37.2-16.7-37.2-37.2c0-12,5.8-23.3,15.6-30.3L27.1,31.9z"/>
			<path class="st9" d="M26.7,31.5c0-11.9,9.7-21.5,21.5-21.5s21.5,9.7,21.5,21.5v107.9c0,0,0.1,0.1,0.1,0.1
				c9.7,7,15.5,18.2,15.5,30.2c0,20.5-16.7,37.2-37.2,37.2s-37.2-16.7-37.2-37.2c0-12,5.8-23.3,15.6-30.3L26.7,31.5z"/>
			<path class="st10" d="M26.3,31.1c0-11.9,9.7-21.5,21.5-21.5s21.5,9.7,21.5,21.5V139c0,0,0.1,0.1,0.1,0.1
				c9.7,7,15.5,18.2,15.5,30.2c0,20.5-16.7,37.1-37.1,37.1s-37.1-16.7-37.1-37.1c0-12,5.8-23.3,15.6-30.3L26.3,31.1z"/>
			<path class="st11" d="M25.9,30.7c0-11.9,9.6-21.5,21.5-21.5s21.5,9.6,21.5,21.5v107.9c0,0,0.1,0.1,0.1,0.1
				c9.7,7,15.5,18.2,15.5,30.2c0,20.5-16.7,37.1-37.1,37.1s-37.1-16.7-37.1-37.1c0-12,5.8-23.3,15.6-30.3L25.9,30.7z"/>
			<path class="st12" d="M25.5,30.2c0-11.9,9.6-21.5,21.5-21.5s21.5,9.6,21.5,21.5v107.9c0,0,0.1,0.1,0.1,0.1
				c9.7,7,15.5,18.2,15.5,30.2c0,20.5-16.7,37.1-37.1,37.1S9.8,188.9,9.8,168.4c0-12,5.8-23.3,15.6-30.3L25.5,30.2z"/>
			<path class="st13" d="M25,29.8C25,18,34.7,8.3,46.5,8.3S68,18,68,29.8v107.9c0,0,0.1,0.1,0.1,0.1c9.7,7,15.5,18.2,15.5,30.2
				c0,20.5-16.6,37.1-37.1,37.1S9.4,188.4,9.4,168c0-12,5.8-23.3,15.6-30.3L25,29.8z"/>
			<path class="st14" d="M24.6,29.4c0-11.8,9.6-21.5,21.5-21.5s21.5,9.6,21.5,21.5v107.9c0,0,0.1,0.1,0.1,0.1
				c9.7,7,15.5,18.2,15.5,30.2c0,20.5-16.6,37.1-37.1,37.1S9,188,9,167.5c0-12,5.8-23.2,15.6-30.2L24.6,29.4z"/>
			<path class="st15" d="M24.2,29c0-11.8,9.6-21.5,21.5-21.5S67.1,17.1,67.1,29v107.9c0,0,0.1,0.1,0.1,0.1
				c9.7,7,15.5,18.2,15.5,30.2c0,20.4-16.6,37.1-37.1,37.1S8.6,187.6,8.6,167.1c0-12,5.8-23.2,15.6-30.2L24.2,29z"/>
			<path class="st16" d="M23.8,28.5c0-11.8,9.6-21.5,21.5-21.5s21.5,9.6,21.5,21.5v107.9c0,0,0.1,0.1,0.1,0.1
				c9.7,6.9,15.5,18.2,15.5,30.2c0,20.4-16.6,37.1-37.1,37.1S8.2,187.1,8.2,166.7c0-12,5.8-23.2,15.6-30.2L23.8,28.5z"/>
			<path class="st17" d="M23.4,28.1c0-11.8,9.6-21.4,21.4-21.4s21.4,9.6,21.4,21.4V136c0,0,0.1,0.1,0.1,0.1
				c9.7,6.9,15.5,18.2,15.5,30.2c0,20.4-16.6,37.1-37.1,37.1S7.8,186.7,7.8,166.3c0-12,5.8-23.2,15.6-30.2L23.4,28.1z"/>
			<path class="st18" d="M23,27.7c0-11.8,9.6-21.4,21.4-21.4s21.4,9.6,21.4,21.4v107.9c0,0,0.1,0.1,0.1,0.1
				c9.7,6.9,15.5,18.2,15.5,30.1c0,20.4-16.6,37-37,37s-37-16.6-37-37c0-12,5.8-23.2,15.6-30.2L23,27.7z"/>
			<path class="st19" d="M22.5,27.2c0-11.8,9.6-21.4,21.4-21.4s21.4,9.6,21.4,21.4v107.9c0,0,0.1,0.1,0.1,0.1
				c9.7,6.9,15.5,18.2,15.5,30.1c0,20.4-16.6,37-37,37s-37-16.6-37-37c0-11.9,5.8-23.2,15.6-30.2L22.5,27.2z"/>
			<path class="st20" d="M22.1,26.8c0-11.8,9.6-21.4,21.4-21.4S64.9,15,64.9,26.8v107.9c0,0,0.1,0.1,0.1,0.1
				c9.7,6.9,15.5,18.2,15.5,30.1c0,20.4-16.6,37-37,37s-37-16.6-37-37c0-11.9,5.8-23.2,15.6-30.2L22.1,26.8z"/>
			<path class="st21" d="M21.7,26.4C21.7,14.6,31.3,5,43.1,5s21.4,9.6,21.4,21.4v108c0,0,0.1,0.1,0.1,0.1
				c9.7,6.9,15.5,18.2,15.5,30.1c0,20.4-16.6,37-37,37s-37-16.6-37-37c0-11.9,5.8-23.2,15.6-30.2L21.7,26.4z"/>
			<path class="Graphic_x0020_Style_x0020_7" d="M42.7,201.1c-20.4,0-37-16.6-37-37c0-11.9,5.8-23.2,15.5-30.1l0.1-0.1l0-108
				c0-11.8,9.6-21.4,21.4-21.4S64.1,14.2,64.1,26v108l0.1,0.1c9.7,6.9,15.5,18.2,15.5,30.1C79.7,184.5,63.1,201.1,42.7,201.1z"/>
		</g>
		<linearGradient id="SVGID_1_" gradientUnits="userSpaceOnUse" x1="5.4321" y1="102.8442" x2="79.9159" y2="102.8442">
			<stop  offset="0" style="stop-color:#FFFFFF"/>
			<stop  offset="1" style="stop-color:#D1D3D4"/>
		</linearGradient>
		<path class="st0" d="M42.7,201.4c-20.5,0-37.2-16.7-37.2-37.2c0-12,5.8-23.3,15.6-30.3L21,26C21,14,30.8,4.3,42.7,4.3
			S64.3,14,64.3,26v107.8c9.8,7,15.6,18.3,15.6,30.3C79.9,184.6,63.2,201.4,42.7,201.4z"/>
		<linearGradient id="SVGID_2_" gradientUnits="userSpaceOnUse" x1="6.6335" y1="102.8442" x2="78.7146" y2="102.8442">
			<stop  offset="0" style="stop-color:#D1D3D4"/>
			<stop  offset="1" style="stop-color:#FFFFFF"/>
		</linearGradient>
		<path class="st23" d="M42.7,200.2c-19.9,0-36-16.2-36-36c0-11.9,5.8-23,15.6-29.7l0-108.5c0-11.3,9.2-20.4,20.4-20.4
			S63.1,14.7,63.1,26v108.5c9.8,6.7,15.6,17.8,15.6,29.7C78.7,184,62.5,200.2,42.7,200.2z"/>
		<g>
			<path class="st1" d="M48.7,197.1c-14.9,0-27-12.1-27-27c0-8.9,4.4-17.2,11.7-22.3l3.9-2.7V128c0-6.3,5.1-11.4,11.4-11.4
				c6.3,0,11.4,5.1,11.4,11.4v17.1l3.9,2.7c7.3,5,11.7,13.4,11.7,22.3C75.7,185,63.6,197.1,48.7,197.1z"/>
			<path class="st47" d="M48.4,196.8c-14.9,0-27-12.1-27-27c0-8.9,4.4-17.2,11.7-22.3l3.9-2.7v-17.1c0-6.3,5.1-11.4,11.4-11.4
				c6.3,0,11.4,5.1,11.4,11.4v17.1l3.9,2.7c7.3,5,11.7,13.4,11.7,22.3C75.4,184.7,63.3,196.8,48.4,196.8z"/>
			<path class="st48" d="M48.1,196.5c-14.9,0-27-12.1-27-27c0-8.9,4.4-17.2,11.7-22.3l3.9-2.7v-17.1c0-6.3,5.1-11.4,11.4-11.4
				c6.3,0,11.4,5.1,11.4,11.4v17.1l3.9,2.7c7.3,5,11.7,13.4,11.7,22.3C75.1,184.4,63,196.5,48.1,196.5z"/>
			<path class="st4" d="M47.8,196.2c-14.9,0-27-12.1-27-27c0-8.9,4.4-17.2,11.7-22.2l3.9-2.7v-17.1c0-6.3,5.1-11.4,11.4-11.4
				c6.3,0,11.4,5.1,11.4,11.4v17.1l3.9,2.7c7.3,5,11.7,13.4,11.7,22.2C74.8,184.1,62.7,196.2,47.8,196.2z"/>
			<path class="st5" d="M47.5,195.9c-14.9,0-27-12.1-27-27c0-8.9,4.4-17.2,11.7-22.2l3.9-2.7v-17.1c0-6.3,5.1-11.4,11.4-11.4
				c6.3,0,11.4,5.1,11.4,11.4V144l3.9,2.7c7.3,5,11.7,13.4,11.7,22.2C74.5,183.8,62.4,195.9,47.5,195.9z"/>
			<path class="st6" d="M47.2,195.6c-14.9,0-27-12.1-27-27c0-8.9,4.4-17.2,11.7-22.2l3.9-2.7v-17.1c0-6.3,5.1-11.4,11.4-11.4
				c6.3,0,11.4,5.1,11.4,11.4v17.1l3.9,2.7c7.3,5,11.7,13.3,11.7,22.2C74.2,183.5,62.1,195.6,47.2,195.6z"/>
			<path class="st7" d="M46.9,195.3c-14.9,0-27-12.1-27-27c0-8.9,4.4-17.2,11.7-22.2l3.9-2.7v-17.1c0-6.3,5.1-11.3,11.3-11.3
				c6.3,0,11.3,5.1,11.3,11.3v17.1l3.9,2.7c7.3,5,11.7,13.3,11.7,22.2C73.9,183.3,61.8,195.3,46.9,195.3z"/>
			<path class="st8" d="M46.7,195.1c-14.9,0-27-12.1-27-27c0-8.9,4.4-17.2,11.7-22.2l3.9-2.7v-17.1c0-6.2,5.1-11.3,11.3-11.3
				c6.2,0,11.3,5.1,11.3,11.3v17.1l3.9,2.7c7.3,5,11.7,13.3,11.7,22.2C73.6,183,61.5,195.1,46.7,195.1z"/>
			<path class="st9" d="M46.4,194.8c-14.9,0-26.9-12.1-26.9-26.9c0-8.9,4.4-17.2,11.7-22.2l3.9-2.7v-17.1c0-6.2,5.1-11.3,11.3-11.3
				c6.2,0,11.3,5.1,11.3,11.3v17.1l3.9,2.7c7.3,5,11.7,13.3,11.7,22.2C73.3,182.7,61.2,194.8,46.4,194.8z"/>
			<path class="st10" d="M46.1,194.5c-14.8,0-26.9-12.1-26.9-26.9c0-8.9,4.4-17.2,11.7-22.2l3.9-2.7v-17.1c0-6.2,5.1-11.3,11.3-11.3
				c6.2,0,11.3,5.1,11.3,11.3v17.1l3.9,2.7c7.3,5,11.7,13.3,11.7,22.2C73,182.4,60.9,194.5,46.1,194.5z"/>
			<path class="st11" d="M45.8,194.2c-14.8,0-26.9-12.1-26.9-26.9c0-8.9,4.4-17.2,11.7-22.2l4-2.7v-17.1c0-6.2,5.1-11.3,11.3-11.3
				c6.2,0,11.3,5.1,11.3,11.3v17.1l4,2.7c7.3,5,11.7,13.3,11.7,22.2C72.7,182.1,60.6,194.2,45.8,194.2z"/>
			<path class="st12" d="M45.5,193.9c-14.8,0-26.9-12.1-26.9-26.9c0-8.9,4.4-17.1,11.7-22.2l4-2.7v-17.2c0-6.2,5.1-11.3,11.3-11.3
				c6.2,0,11.3,5.1,11.3,11.3v17.2l4,2.7c7.3,5,11.7,13.3,11.7,22.2C72.4,181.8,60.4,193.9,45.5,193.9z"/>
			<path class="st13" d="M45.2,193.6c-14.8,0-26.9-12.1-26.9-26.9c0-8.9,4.4-17.1,11.7-22.2l4-2.7v-17.2c0-6.2,5.1-11.3,11.3-11.3
				c6.2,0,11.3,5.1,11.3,11.3v17.2l4,2.7c7.3,5,11.7,13.3,11.7,22.2C72.1,181.5,60.1,193.6,45.2,193.6z"/>
			<path class="st14" d="M45,193.3c-14.8,0-26.9-12.1-26.9-26.9c0-8.9,4.4-17.1,11.7-22.2l4-2.7v-17.2c0-6.2,5.1-11.3,11.3-11.3
				c6.2,0,11.3,5.1,11.3,11.3v17.2l4,2.7c7.3,5,11.7,13.3,11.7,22.2C71.8,181.2,59.8,193.3,45,193.3z"/>
			<path class="st15" d="M44.7,193c-14.8,0-26.9-12.1-26.9-26.9c0-8.8,4.4-17.1,11.6-22.1l4-2.7v-17.2c0-6.2,5-11.3,11.3-11.3
				c6.2,0,11.3,5,11.3,11.3v17.2l4,2.7c7.3,5,11.6,13.3,11.6,22.1C71.5,180.9,59.5,193,44.7,193z"/>
			<path class="st16" d="M44.4,192.7c-14.8,0-26.9-12-26.9-26.9c0-8.8,4.4-17.1,11.6-22.1l4-2.7v-17.2c0-6.2,5-11.2,11.2-11.2
				c6.2,0,11.2,5,11.2,11.2V141l4,2.7c7.3,5,11.6,13.3,11.6,22.1C71.2,180.6,59.2,192.7,44.4,192.7z"/>
			<path class="st17" d="M44.1,192.4c-14.8,0-26.8-12-26.8-26.8c0-8.8,4.3-17.1,11.6-22.1l4-2.7v-17.2c0-6.2,5-11.2,11.2-11.2
				c6.2,0,11.2,5,11.2,11.2v17.2l4,2.7c7.3,5,11.6,13.3,11.6,22.1C70.9,180.3,58.9,192.4,44.1,192.4z"/>
			<path class="st18" d="M43.8,192.1C29,192.1,17,180,17,165.3c0-8.8,4.3-17.1,11.6-22.1l4-2.7v-17.2c0-6.2,5-11.2,11.2-11.2
				c6.2,0,11.2,5,11.2,11.2v17.2l4,2.7c7.3,5,11.6,13.3,11.6,22.1C70.6,180,58.6,192.1,43.8,192.1z"/>
			<path class="st19" d="M43.5,191.8c-14.8,0-26.8-12-26.8-26.8c0-8.8,4.3-17.1,11.6-22.1l4-2.7v-17.2c0-6.2,5-11.2,11.2-11.2
				s11.2,5,11.2,11.2v17.2l4,2.7c7.3,5,11.6,13.3,11.6,22.1C70.4,179.8,58.3,191.8,43.5,191.8z"/>
			<path class="st20" d="M43.2,191.5c-14.8,0-26.8-12-26.8-26.8c0-8.8,4.3-17.1,11.6-22.1l4-2.8v-17.2c0-6.2,5-11.2,11.2-11.2
				s11.2,5,11.2,11.2v17.2l4,2.8c7.3,5,11.6,13.3,11.6,22.1C70.1,179.5,58,191.5,43.2,191.5z"/>
			<path class="st21" d="M43,191.2c-14.8,0-26.8-12-26.8-26.8c0-8.8,4.3-17.1,11.6-22.1l4-2.8v-17.2c0-6.2,5-11.2,11.2-11.2
				s11.2,5,11.2,11.2v17.2l4,2.8c7.3,5,11.6,13.3,11.6,22.1C69.8,179.2,57.7,191.2,43,191.2z"/>
			<path class="Graphic_x0020_Style_x0020_7" d="M42.7,190.9c-14.8,0-26.8-12-26.8-26.8c0-8.8,4.3-17.1,11.6-22.1l4-2.8v-17.2
				c0-6.2,5-11.2,11.2-11.2s11.2,5,11.2,11.2v17.2l4,2.8c7.3,5,11.6,13.3,11.6,22.1C69.5,178.9,57.4,190.9,42.7,190.9z"/>
		</g>
		<linearGradient id="SVGID_3_" gradientUnits="userSpaceOnUse" x1="15.6436" y1="150.8983" x2="69.7044" y2="150.8983">
			<stop  offset="0" style="stop-color:#AAB9BD"/>
			<stop  offset="8.997262e-03" style="stop-color:#ABBABE"/>
			<stop  offset="0.3131" style="stop-color:#C3CED0"/>
			<stop  offset="0.5" style="stop-color:#CCD5D7"/>
			<stop  offset="1" style="stop-color:#EEF1F2"/>
		</linearGradient>
		<path class="st24" d="M42.7,191.1c-14.9,0-27-12.1-27-27c0-8.9,4.4-17.2,11.7-22.3l3.9-2.7v-17.1c0-6.3,5.1-11.4,11.4-11.4
			s11.4,5.1,11.4,11.4v17.1l3.9,2.7c7.3,5,11.7,13.4,11.7,22.3C69.7,179,57.6,191.1,42.7,191.1z"/>
		<path class="st52" d="M42.7,189.9c-14.2,0-25.8-11.6-25.8-25.8c0-8.5,4.2-16.5,11.2-21.3l4.4-3v-17.7c0-5.6,4.6-10.2,10.2-10.2
			s10.2,4.6,10.2,10.2v17.7l4.4,3c7,4.8,11.2,12.8,11.2,21.3C68.5,178.4,56.9,189.9,42.7,189.9z"/>
		<g>
			<path class="st22" d="M62.4,123.3h-3.6c-0.3,0-0.6-0.3-0.6-0.6s0.3-0.6,0.6-0.6h3.6c0.3,0,0.6,0.3,0.6,0.6S62.7,123.3,62.4,123.3
				z"/>
			<path class="st22" d="M62.4,111.3h-3.6c-0.3,0-0.6-0.3-0.6-0.6s0.3-0.6,0.6-0.6h3.6c0.3,0,0.6,0.3,0.6,0.6S62.7,111.3,62.4,111.3
				z"/>
			<path class="st22" d="M62.4,99.2h-3.6c-0.3,0-0.6-0.3-0.6-0.6s0.3-0.6,0.6-0.6h3.6c0.3,0,0.6,0.3,0.6,0.6S62.7,99.2,62.4,99.2z"
				/>
			<path class="st22" d="M62.4,87.2h-3.6c-0.3,0-0.6-0.3-0.6-0.6c0-0.3,0.3-0.6,0.6-0.6h3.6c0.3,0,0.6,0.3,0.6,0.6
				C63,87,62.7,87.2,62.4,87.2z"/>
			<path class="st22" d="M62.4,75.2h-3.6c-0.3,0-0.6-0.3-0.6-0.6c0-0.3,0.3-0.6,0.6-0.6h3.6c0.3,0,0.6,0.3,0.6,0.6
				C63,74.9,62.7,75.2,62.4,75.2z"/>
			<path class="st22" d="M62.4,63.2h-3.6c-0.3,0-0.6-0.3-0.6-0.6c0-0.3,0.3-0.6,0.6-0.6h3.6c0.3,0,0.6,0.3,0.6,0.6
				C63,62.9,62.7,63.2,62.4,63.2z"/>
			<path class="st22" d="M62.4,51.2h-3.6c-0.3,0-0.6-0.3-0.6-0.6c0-0.3,0.3-0.6,0.6-0.6h3.6c0.3,0,0.6,0.3,0.6,0.6
				C63,50.9,62.7,51.2,62.4,51.2z"/>
			<path class="st22" d="M62.4,39.2h-3.6c-0.3,0-0.6-0.3-0.6-0.6c0-0.3,0.3-0.6,0.6-0.6h3.6c0.3,0,0.6,0.3,0.6,0.6
				C63,38.9,62.7,39.2,62.4,39.2z"/>
			<path class="st22" d="M62.4,27.2h-3.6c-0.3,0-0.6-0.3-0.6-0.6c0-0.3,0.3-0.6,0.6-0.6h3.6c0.3,0,0.6,0.3,0.6,0.6
				C63,26.9,62.7,27.2,62.4,27.2z"/>
		</g>
		<g id="_x32_0_x25_">
			<g>
				<path class="st27" d="M23.4,172v-2l2.1-1.9c4.1-3.8,6.1-5.9,6.1-8.3c0-1.6-0.8-2.9-3.1-2.9c-1.5,0-2.9,0.8-3.8,1.5l-1-2.4
					c1.3-1,3.2-1.8,5.4-1.8c3.9,0,5.8,2.5,5.8,5.3c0,3.1-2.2,5.6-5.3,8.4l-1.5,1.3v0.1h7.2v2.8H23.4z"/>
				<path class="st27" d="M50.3,163.2c0,5.6-2.2,9.2-6.4,9.2c-4.1,0-6.2-3.7-6.2-9c0-5.5,2.3-9.1,6.4-9.1
					C48.4,154.2,50.3,158,50.3,163.2z M41,163.3c0,4.3,1.2,6.5,3,6.5c1.9,0,3-2.4,3-6.6c0-4.1-1-6.5-3-6.5
					C42.3,156.7,41,158.9,41,163.3z"/>
				<path class="st27" d="M57.3,162.1c0,3-1.4,4.4-2.8,4.4c-2,0-2.8-2.1-2.8-4.3c0-2.3,1-4.4,2.9-4.4
					C56.6,157.8,57.3,160.1,57.3,162.1z M53.6,162.1c0,1.8,0.3,2.8,0.9,2.8c0.7,0,0.9-1,0.9-2.8c0-1.6-0.2-2.8-0.9-2.8
					C53.9,159.3,53.6,160.3,53.6,162.1z M53.8,172.2l7.6-14.4h1.5l-7.5,14.4H53.8z M65.1,167.8c0,3-1.4,4.4-2.8,4.4
					c-2,0-2.8-2.2-2.8-4.3c0-2.3,1-4.3,2.9-4.3C64.4,163.6,65.1,165.9,65.1,167.8z M61.4,167.9c0,1.8,0.3,2.8,0.9,2.8
					c0.6,0,0.9-1,0.9-2.8c0-1.6-0.2-2.8-0.9-2.8C61.7,165.1,61.4,166.1,61.4,167.9z"/>
			</g>
			<path class="st28" d="M22.2,170.8v-2l2.1-1.9c4.1-3.8,6.1-5.9,6.1-8.3c0-1.6-0.8-2.9-3.1-2.9c-1.5,0-2.9,0.8-3.8,1.5l-1-2.4
				c1.3-1,3.2-1.8,5.4-1.8c3.9,0,5.8,2.5,5.8,5.3c0,3.1-2.2,5.6-5.3,8.4l-1.5,1.3v0.1h7.2v2.8H22.2z"/>
			<path class="st28" d="M49.1,162c0,5.6-2.2,9.2-6.4,9.2c-4.1,0-6.2-3.7-6.2-9c0-5.5,2.3-9.1,6.4-9.1C47.2,153,49.1,156.8,49.1,162
				z M39.8,162.1c0,4.3,1.2,6.5,3,6.5c1.9,0,3-2.4,3-6.6c0-4.1-1-6.5-3-6.5C41.1,155.5,39.8,157.7,39.8,162.1z"/>
			<path class="st28" d="M56.1,160.9c0,3-1.4,4.4-2.8,4.4c-2,0-2.8-2.1-2.8-4.3c0-2.3,1-4.4,2.9-4.4
				C55.4,156.6,56.1,158.9,56.1,160.9z M52.4,160.9c0,1.8,0.3,2.8,0.9,2.8c0.7,0,0.9-1,0.9-2.8c0-1.6-0.2-2.8-0.9-2.8
				C52.7,158.1,52.4,159.1,52.4,160.9z M52.6,171l7.6-14.4h1.5L54.1,171H52.6z M63.9,166.6c0,3-1.4,4.4-2.8,4.4
				c-2,0-2.8-2.2-2.8-4.3c0-2.3,1-4.3,2.9-4.3C63.2,162.4,63.9,164.7,63.9,166.6z M60.2,166.7c0,1.8,0.3,2.8,0.9,2.8
				c0.6,0,0.9-1,0.9-2.8c0-1.6-0.2-2.8-0.9-2.8C60.5,163.9,60.2,164.9,60.2,166.7z"/>
		</g>
	</g>
</g>
</svg>
